<svg width="24" height="24" viewBox="0 0 24 24" fill="none" xmlns="http://www.w3.org/2000/svg">
<path d="M12.9 2.75H17.1C18.776 2.75 19.7541 3.0898 20.3322 3.66783C20.9102 4.24586 21.25 5.22397 21.25 6.9V11.1C21.25 12.5735 20.9846 13.5079 20.5281 14.1007C20.09 14.6697 19.3778 15.0482 18.1761 15.1851C18.1373 15.1895 18.1021 15.1789 18.0675 15.1457C18.0296 15.1093 18 15.0501 18 14.9781V12.9C18 10.6984 17.4899 8.92924 16.2803 7.71967C15.0708 6.5101 13.3016 6 11.1 6H9.02191C8.94986 6 8.89073 5.97044 8.8543 5.9325C8.82109 5.89793 8.81051 5.86269 8.81493 5.82388C8.95179 4.62225 9.33034 3.91001 9.89928 3.47189C10.4921 3.01538 11.4265 2.75 12.9 2.75Z" fill="#575757" stroke="#575757" stroke-width="1.5"/>
<path d="M6.9 8.75H11.1C12.776 8.75 13.7541 9.0898 14.3322 9.66783C14.9102 10.2459 15.25 11.224 15.25 12.9V17.1C15.25 18.776 14.9102 19.7541 14.3322 20.3322C13.7541 20.9102 12.776 21.25 11.1 21.25H6.9C5.22397 21.25 4.24586 20.9102 3.66783 20.3322C3.0898 19.7541 2.75 18.776 2.75 17.1V12.9C2.75 11.224 3.0898 10.2459 3.66783 9.66783C4.24586 9.0898 5.22397 8.75 6.9 8.75ZM9.11033 17.8903L12.8203 14.1803C13.4066 13.594 13.3696 12.659 12.8103 12.0997C12.2374 11.5268 11.3126 11.5268 10.7397 12.0997L8.06 14.7793L7.24033 13.9597C6.66744 13.3868 5.74256 13.3868 5.16967 13.9597C4.59678 14.5326 4.59678 15.4574 5.16967 16.0303L7.02967 17.8903C7.31579 18.1765 7.68896 18.32 8.07 18.32C8.45104 18.32 8.82421 18.1765 9.11033 17.8903Z" fill="#575757" stroke="#575757" stroke-width="1.5"/>
</svg>
