<svg width="16" height="14" viewBox="0 0 16 14" fill="none" xmlns="http://www.w3.org/2000/svg">
<path d="M1.66636 5.51562H14.333M6.66636 1.51562L5.33302 5.51562L7.99969 13.1823L10.6664 5.51562L9.33302 1.51562M8.40941 13.024L14.3818 5.85706C14.4831 5.73559 14.5337 5.67486 14.553 5.60707C14.5701 5.5473 14.5701 5.48395 14.553 5.42418C14.5337 5.35639 14.4831 5.29566 14.3818 5.17419L11.4929 1.70753C11.4342 1.63699 11.4048 1.60172 11.3687 1.57636C11.3368 1.5539 11.3012 1.53721 11.2635 1.52707C11.221 1.51562 11.175 1.51562 11.0832 1.51562H4.91616C4.82434 1.51562 4.77843 1.51562 4.73588 1.52707C4.69819 1.53721 4.66257 1.5539 4.63064 1.57636C4.59461 1.60172 4.56522 1.63699 4.50644 1.70753L1.61755 5.17419C1.51633 5.29565 1.46572 5.35639 1.44638 5.42418C1.42933 5.48395 1.42933 5.5473 1.44638 5.60707C1.46572 5.67486 1.51633 5.73559 1.61755 5.85705L7.58997 13.024C7.73068 13.1928 7.80103 13.2772 7.88526 13.308C7.95916 13.335 8.04023 13.335 8.11412 13.308C8.19835 13.2772 8.26871 13.1928 8.40941 13.024Z" stroke="#1C1B1F" stroke-width="1.3" stroke-linecap="round" stroke-linejoin="round"/>
</svg>
