<svg width="20" height="16" viewBox="0 0 20 16" fill="none" xmlns="http://www.w3.org/2000/svg">
<path d="M17.9179 12.9987L12.3823 7.9987M7.62035 7.9987L2.08466 12.9987M1.66797 3.83203L8.47207 8.5949C9.02304 8.98058 9.29853 9.17343 9.59819 9.24812C9.86288 9.3141 10.1397 9.3141 10.4044 9.24812C10.7041 9.17343 10.9796 8.98058 11.5305 8.5949L18.3346 3.83203M5.66797 14.6654H14.3346C15.7348 14.6654 16.4348 14.6654 16.9696 14.3929C17.44 14.1532 17.8225 13.7707 18.0622 13.3003C18.3346 12.7656 18.3346 12.0655 18.3346 10.6654V5.33203C18.3346 3.9319 18.3346 3.23183 18.0622 2.69705C17.8225 2.22665 17.44 1.8442 16.9696 1.60451C16.4348 1.33203 15.7348 1.33203 14.3346 1.33203H5.66797C4.26784 1.33203 3.56777 1.33203 3.03299 1.60451C2.56259 1.8442 2.18014 2.22665 1.94045 2.69705C1.66797 3.23183 1.66797 3.9319 1.66797 5.33203V10.6654C1.66797 12.0655 1.66797 12.7656 1.94045 13.3003C2.18014 13.7707 2.56259 14.1532 3.03299 14.3929C3.56777 14.6654 4.26784 14.6654 5.66797 14.6654Z" stroke="#1C1B1F" stroke-width="1.5" stroke-linecap="round" stroke-linejoin="round"/>
</svg>
