<svg width="19" height="18" viewBox="0 0 19 18" fill="none" xmlns="http://www.w3.org/2000/svg">
<path d="M17 6L17.7071 6.70711L18.4142 6L17.7071 5.29289L17 6ZM12 18C12.5523 18 13 17.5523 13 17C13 16.4477 12.5523 16 12 16L12 18ZM12.7071 11.7071L17.7071 6.70711L16.2929 5.29289L11.2929 10.2929L12.7071 11.7071ZM17.7071 5.29289L12.7071 0.292892L11.2929 1.70711L16.2929 6.70711L17.7071 5.29289ZM17 5L6.5 5L6.5 7L17 7L17 5ZM6.5 18L12 18L12 16L6.5 16L6.5 18ZM4.80825e-07 11.5C1.66991e-07 15.0898 2.91015 18 6.5 18L6.5 16C4.01472 16 2 13.9853 2 11.5L4.80825e-07 11.5ZM6.5 5C2.91015 5 7.9466e-07 7.91015 4.80825e-07 11.5L2 11.5C2 9.01472 4.01472 7 6.5 7L6.5 5Z" fill="#575757"/>
</svg>
