<svg width="18" height="18" viewBox="0 0 18 18" fill="none" xmlns="http://www.w3.org/2000/svg">
<path d="M16.0743 5.5062V5.50964V12.493C16.0743 13.761 15.7012 14.6234 15.1571 15.1674C14.6131 15.7115 13.7508 16.0846 12.4827 16.0846H5.50768C4.23963 16.0846 3.37769 15.7115 2.83379 15.1669C2.2897 14.6222 1.91602 13.7578 1.91602 12.4846V5.50964C1.91602 4.24156 2.28917 3.37925 2.83323 2.83519C3.3773 2.29112 4.2396 1.91797 5.50768 1.91797H12.491C13.7593 1.91797 14.6211 2.29123 15.1639 2.83463C15.7063 3.37778 16.0778 4.23892 16.0743 5.5062ZM12.32 8.08418L12.3337 8.09108L12.3476 8.09764C13.2717 8.53538 14.3685 8.16656 14.8363 7.25564C15.3204 6.31291 14.9231 5.18645 14 4.72494C10.8648 3.15731 7.12557 3.15731 3.99033 4.72494L3.9903 4.72487L3.97834 4.73101C3.07185 5.19651 2.68329 6.31439 3.15923 7.24947C3.4944 7.91408 4.16849 8.2763 4.83268 8.2763C5.06691 8.2763 5.3494 8.23496 5.63327 8.10593L5.65618 8.09551L5.67866 8.08418C6.13986 7.85171 6.62431 7.67358 7.12435 7.54698V12.5763C7.12435 13.6083 7.96733 14.4513 8.99935 14.4513C10.0314 14.4513 10.8743 13.6083 10.8743 12.5763V7.54698C11.3744 7.67358 11.8588 7.85171 12.32 8.08418Z" fill="white" stroke="white" stroke-width="2.5"/>
</svg>
