<svg width="20" height="20" viewBox="0 0 20 20" fill="none" xmlns="http://www.w3.org/2000/svg">
<path d="M17.5574 4.35964C16.2157 4.2263 14.8741 4.1263 13.5241 4.0513V4.04297L13.3407 2.95964C13.2157 2.19297 13.0324 1.04297 11.0824 1.04297H8.89907C6.95741 1.04297 6.77407 2.14297 6.64074 2.9513L6.46574 4.01797C5.69074 4.06797 4.91574 4.11797 4.14074 4.19297L2.44074 4.35964C2.09074 4.39297 1.84074 4.7013 1.87407 5.04297C1.90741 5.38464 2.20741 5.63464 2.55741 5.6013L4.25741 5.43464C8.62407 5.0013 13.0241 5.16797 17.4407 5.60964C17.4657 5.60964 17.4824 5.60964 17.5074 5.60964C17.8241 5.60964 18.0991 5.36797 18.1324 5.04297C18.1574 4.7013 17.9074 4.39297 17.5574 4.35964Z" fill="#D92037"/>
<path d="M16.0245 6.78203C15.8245 6.5737 15.5495 6.45703 15.2661 6.45703H4.7328C4.44947 6.45703 4.16613 6.5737 3.97447 6.78203C3.7828 6.99036 3.67447 7.2737 3.69113 7.56536L4.2078 16.1154C4.29947 17.382 4.41613 18.9654 7.32447 18.9654H12.6745C15.5828 18.9654 15.6995 17.3904 15.7911 16.1154L16.3078 7.5737C16.3245 7.2737 16.2161 6.99036 16.0245 6.78203ZM11.3828 14.7904H8.6078C8.26613 14.7904 7.9828 14.507 7.9828 14.1654C7.9828 13.8237 8.26613 13.5404 8.6078 13.5404H11.3828C11.7245 13.5404 12.0078 13.8237 12.0078 14.1654C12.0078 14.507 11.7245 14.7904 11.3828 14.7904ZM12.0828 11.457H7.91613C7.57447 11.457 7.29113 11.1737 7.29113 10.832C7.29113 10.4904 7.57447 10.207 7.91613 10.207H12.0828C12.4245 10.207 12.7078 10.4904 12.7078 10.832C12.7078 11.1737 12.4245 11.457 12.0828 11.457Z" fill="#D92037"/>
</svg>
