<svg width="48" height="48" viewBox="0 0 48 48" fill="none" xmlns="http://www.w3.org/2000/svg">
<circle cx="24" cy="24.002" r="24" fill="#1C1B1F"/>
<path d="M31.7056 31.1637L25.6673 22.6011L24.9847 21.6327L20.6654 15.5076L20.3075 15H15L16.2944 16.8361L22.0375 24.9811L22.7201 25.9485L27.3345 32.4928L27.6925 33H33L31.7056 31.1639V31.1637ZM28.3233 31.828L23.5293 25.0291L22.8466 24.0613L17.2837 16.1719H19.6766L24.1754 22.5521L24.858 23.5199L30.7162 31.8278H28.3233V31.828Z" fill="white"/>
<path d="M22.4533 24L23.1 24.9745L22.3333 25.9002L16.4506 33H15L21.6866 24.9262L22.4533 24Z" fill="white"/>
<path d="M33.0021 15L26.3116 22.2995L25.5026 23.1818L24.8203 22.2524L25.6293 21.3695L30.1613 16.4226L31.4716 15H33.0021Z" fill="white"/>
</svg>
