<svg width="24" height="24" viewBox="0 0 24 24" fill="none" xmlns="http://www.w3.org/2000/svg">
<path d="M16.2793 2H3.44088C2.64633 2 2 2.66838 2 3.49003V16.331C2 17.1527 2.64633 17.821 3.44088 17.821H16.2793C17.0739 17.821 17.7202 17.1527 17.7202 16.331V3.49003C17.7202 2.66838 17.0739 2 16.2793 2ZM8.09269 16.0797V14.7146H6.18499V16.0797H3.68439V3.74186H16.0358V6.18245H14.9135V8.15522H16.0358V16.0797H8.09269Z" fill="white"/>
<path d="M11.3073 7.7397V6.60027H12.9741V7.7397H11.3073Z" fill="white" stroke="white" stroke-width="0.833345"/>
<path d="M20.5026 13.075V11.3229H21.577V13.075H20.5026Z" fill="white" stroke="white" stroke-width="0.833345"/>
<path d="M20.5026 16.8836V15.1315H21.577V16.8836H20.5026Z" fill="white" stroke="white" stroke-width="0.833345"/>
<path d="M6.60027 13.075V11.3229H7.67462V13.075H6.60027Z" fill="white" stroke="white" stroke-width="0.833345"/>
<path d="M13.3907 19.9805H10.8906V21.9532H13.3907V19.9805Z" fill="white"/>
<path d="M17.4142 19.9805H14.9141V21.9532H17.4142V19.9805Z" fill="white"/>
<path d="M20.0896 9.73549H21.9973V8.15637H21.9987V6.92911C21.9987 6.51753 21.6763 6.18359 21.2778 6.18359H18.5664V8.15637H20.0896V9.73549Z" fill="white"/>
<path d="M20.0934 18.4492V20.0244H18.5664V21.9971H20.0934V21.9986H21.2802C21.6782 21.9986 22.0011 21.6652 22.0011 21.2531V18.4492H20.0934Z" fill="white"/>
<path d="M7.9702 18.4492H6.0625V21.2531C6.0625 21.6647 6.38494 21.9986 6.78342 21.9986H7.9702V21.9971H9.49722V20.0244H7.9702V18.4492Z" fill="white"/>
<path d="M6.08203 6.92911V8.15637H6.08347V9.73549H7.99117V8.15637H9.51434V6.18359H6.80295C6.40495 6.18359 6.08203 6.51704 6.08203 6.92911Z" fill="white"/>
</svg>
