<svg width="24" height="24" viewBox="0 0 24 24" fill="none" xmlns="http://www.w3.org/2000/svg">
<path d="M16.2793 2H3.44088C2.64633 2 2 2.66838 2 3.49003V16.331C2 17.1527 2.64633 17.821 3.44088 17.821H16.2793C17.0739 17.821 17.7202 17.1527 17.7202 16.331V3.49003C17.7202 2.66838 17.0739 2 16.2793 2ZM8.09269 16.0797V14.7146H6.18499V16.0797H3.68439V3.74186H16.0358V6.18245H14.9135V8.15522H16.0358V16.0797H8.09269Z" fill="#8D8D8D"/>
<path d="M11.3083 7.7397V6.60027H12.9751V7.7397H11.3083Z" fill="#8D8D8D" stroke="#8D8D8D" stroke-width="0.833345"/>
<path d="M20.5026 13.075V11.3229H21.577V13.075H20.5026Z" fill="#8D8D8D" stroke="#8D8D8D" stroke-width="0.833345"/>
<path d="M20.5026 16.8836V15.1315H21.577V16.8836H20.5026Z" fill="#8D8D8D" stroke="#8D8D8D" stroke-width="0.833345"/>
<path d="M6.60173 13.075V11.3229H7.67608V13.075H6.60173Z" fill="#8D8D8D" stroke="#8D8D8D" stroke-width="0.833345"/>
<path d="M13.3917 19.9805H10.8916V21.9532H13.3917V19.9805Z" fill="#8D8D8D"/>
<path d="M17.4142 19.9805H14.9141V21.9532H17.4142V19.9805Z" fill="#8D8D8D"/>
<path d="M20.0901 9.73549H21.9978V8.15637H21.9992V6.92911C21.9992 6.51753 21.6768 6.18359 21.2783 6.18359H18.5669V8.15637H20.0901V9.73549Z" fill="#8D8D8D"/>
<path d="M20.0925 18.4492V20.0244H18.5654V21.9971H20.0925V21.9986H21.2792C21.6772 21.9986 22.0001 21.6652 22.0001 21.2531V18.4492H20.0925Z" fill="#8D8D8D"/>
<path d="M7.97166 18.4492H6.06396V21.2531C6.06396 21.6647 6.38641 21.9986 6.78489 21.9986H7.97166V21.9971H9.49868V20.0244H7.97166V18.4492Z" fill="#8D8D8D"/>
<path d="M6.0835 6.92911V8.15637H6.08494V9.73549H7.99264V8.15637H9.51581V6.18359H6.80442C6.40642 6.18359 6.0835 6.51704 6.0835 6.92911Z" fill="#8D8D8D"/>
</svg>
