<svg width="172" height="53" viewBox="0 0 172 53" fill="none" xmlns="http://www.w3.org/2000/svg">
<g clip-path="url(#clip0_6536_64016)">
<path d="M165.63 52.5H6.37037C2.80296 52.5 0 49.64 0 46V7C0 3.36 2.80296 0.5 6.37037 0.5H165.63C169.197 0.5 172 3.36 172 7V46C172 49.51 169.197 52.5 165.63 52.5Z" fill="#0A0A1C"/>
<path d="M165.63 1.54C168.56 1.54 170.981 4.01 170.981 7V46C170.981 48.99 168.56 51.46 165.63 51.46H6.37037C3.44 51.46 1.01926 48.99 1.01926 46V7C1.01926 4.01 3.44 1.54 6.37037 1.54H165.63ZM165.63 0.5H6.37037C2.80296 0.5 0 3.36 0 7V46C0 49.64 2.80296 52.5 6.37037 52.5H165.63C169.197 52.5 172 49.64 172 46V7C172 3.49 169.197 0.5 165.63 0.5Z" fill="#A6A6A6"/>
<path d="M53.3838 17.4005V9.73047H56.3142C57.0786 9.73047 57.5882 9.86047 58.2253 10.2505C58.8623 10.6405 59.1171 11.0305 59.4993 11.5505C59.7542 12.0705 59.8816 12.8505 59.8816 13.5005C59.8816 14.2805 59.7542 14.9305 59.4993 15.4505C59.2445 15.9705 58.8623 16.4905 58.2253 16.7505C57.7156 17.0105 57.0786 17.2705 56.3142 17.2705H53.3838V17.4005ZM56.1867 10.9005H54.5305V16.2305H56.1867C56.9512 16.2305 57.5882 15.9705 57.9705 15.5805C58.3527 15.0605 58.6075 14.4105 58.6075 13.6305C58.6075 12.8505 58.3527 12.2005 57.9705 11.6805C57.5882 11.1605 56.9512 10.9005 56.1867 10.9005Z" fill="white"/>
<path d="M63.5759 17.5308C63.0663 17.5308 62.5566 17.4008 62.047 17.1408C61.5374 16.8808 61.2825 16.4908 61.0277 16.1008C60.7729 15.7108 60.6455 15.1908 60.6455 14.5408C60.6455 13.8908 60.7729 13.5008 61.0277 12.9808C61.2825 12.5908 61.6648 12.2008 62.047 11.9408C62.4292 11.6808 62.9388 11.5508 63.5759 11.5508C64.0855 11.5508 64.5951 11.6808 64.9774 11.9408C65.3596 12.2008 65.7418 12.5908 65.9966 12.9808C66.2514 13.3708 66.3788 13.8908 66.3788 14.5408C66.3788 15.1908 66.2514 15.5808 65.9966 16.1008C65.7418 16.4908 65.3596 16.8808 64.9774 17.1408C64.5951 17.4008 64.0855 17.5308 63.5759 17.5308ZM63.5759 16.4908C63.9581 16.4908 64.2129 16.3608 64.4677 16.2308C64.7225 16.1008 64.9774 15.8408 65.1048 15.5808C65.2322 15.3208 65.3596 14.9308 65.3596 14.5408C65.3596 14.1508 65.2322 13.8908 65.1048 13.5008C64.9774 13.2408 64.7225 12.9808 64.4677 12.8508C64.2129 12.7208 63.9581 12.5908 63.5759 12.5908C63.1937 12.5908 62.9388 12.7208 62.684 12.8508C62.4292 12.9808 62.1744 13.2408 62.047 13.5008C61.9196 13.7608 61.7922 14.1508 61.7922 14.5408C61.7922 14.9308 61.7922 15.1908 62.047 15.5808C62.1744 15.8408 62.4292 16.1008 62.684 16.2308C62.9388 16.3608 63.1937 16.4908 63.5759 16.4908Z" fill="white"/>
<path d="M68.8008 17.4007L66.8896 11.6807H68.0363L69.3104 15.5807L70.7119 12.5907H71.3489L72.623 15.5807L73.8971 11.6807H75.0437L73.0052 17.4007H72.2408L70.8393 14.0207L69.5652 17.4007H68.8008Z" fill="white"/>
<path d="M75.9346 17.4008V11.6808H77.0812V12.5908C77.2086 12.3308 77.5909 12.0708 77.8457 11.8108C78.2279 11.5508 78.4827 11.5508 78.8649 11.5508C80.139 11.5508 80.7761 12.3308 80.7761 13.8908V17.4008H79.6294V14.0208C79.6294 12.9808 79.2472 12.5908 78.4827 12.5908C78.2279 12.5908 77.9731 12.5908 77.7183 12.7208C77.4635 12.8508 77.3361 12.9808 77.2086 13.2408C77.0812 13.5008 76.9538 13.6308 76.9538 13.8908V17.4008H75.9346Z" fill="white"/>
<path d="M82.3047 17.4008V9.34082H83.4514V17.4008H82.3047Z" fill="white"/>
<path d="M87.4011 17.5308C86.8914 17.5308 86.3818 17.4008 85.8722 17.1408C85.3626 16.8808 85.1077 16.4908 84.8529 16.1008C84.5981 15.7108 84.4707 15.1908 84.4707 14.5408C84.4707 13.8908 84.5981 13.5008 84.8529 12.9808C85.1077 12.5908 85.49 12.2008 85.8722 11.9408C86.2544 11.6808 86.764 11.5508 87.4011 11.5508C87.9107 11.5508 88.4203 11.6808 88.8026 11.9408C89.1848 12.2008 89.567 12.5908 89.8218 12.9808C90.0766 13.3708 90.204 13.8908 90.204 14.5408C90.204 15.1908 90.0766 15.5808 89.8218 16.1008C89.567 16.6208 89.1848 16.8808 88.8026 17.1408C88.4203 17.4008 87.9107 17.5308 87.4011 17.5308ZM87.4011 16.4908C87.7833 16.4908 88.0381 16.3608 88.2929 16.2308C88.5477 16.1008 88.8026 15.8408 88.93 15.5808C89.0574 15.3208 89.1848 14.9308 89.1848 14.5408C89.1848 14.1508 89.1848 13.8908 88.93 13.5008C88.8026 13.2408 88.5477 12.9808 88.2929 12.8508C88.0381 12.7208 87.7833 12.5908 87.4011 12.5908C87.0188 12.5908 86.764 12.7208 86.5092 12.8508C86.2544 12.9808 85.9996 13.2408 85.8722 13.5008C85.7448 13.7608 85.6174 14.1508 85.6174 14.5408C85.6174 14.9308 85.6174 15.1908 85.8722 15.5808C85.9996 15.8408 86.2544 16.1008 86.5092 16.2308C86.764 16.3608 87.0188 16.4908 87.4011 16.4908Z" fill="white"/>
<path d="M93.6448 17.5308C93.1352 17.5308 92.753 17.4008 92.3708 17.1408C91.9885 16.8808 91.7337 16.4908 91.4789 16.1008C91.2241 15.7108 91.0967 15.1908 91.0967 14.5408C91.0967 14.0208 91.2241 13.5008 91.4789 12.9808C91.7337 12.4608 91.9885 12.2008 92.3708 11.9408C92.753 11.6808 93.2626 11.5508 93.6448 11.5508C94.027 11.5508 94.4093 11.6808 94.7915 11.8108C95.1737 11.9408 95.3011 12.2008 95.5559 12.4608V11.5508H96.7026V17.4008H95.5559V16.4908C95.3011 16.7508 95.0463 17.0108 94.7915 17.1408C94.4093 17.4008 94.027 17.5308 93.6448 17.5308ZM93.8996 16.4908C94.2819 16.4908 94.5367 16.3608 94.7915 16.2308C95.0463 16.1008 95.3011 15.8408 95.4285 15.5808C95.5559 15.3208 95.6833 14.9308 95.6833 14.5408C95.6833 14.1508 95.5559 13.8908 95.4285 13.5008C95.3011 13.1108 95.0463 12.9808 94.7915 12.8508C94.5367 12.7208 94.2819 12.5908 93.8996 12.5908C93.5174 12.5908 93.2626 12.7208 93.0078 12.8508C92.753 12.9808 92.4982 13.2408 92.3708 13.5008C92.2433 13.7608 92.1159 14.1508 92.1159 14.5408C92.1159 14.9308 92.2433 15.1908 92.3708 15.5808C92.4982 15.8408 92.753 16.1008 93.0078 16.2308C93.2626 16.3608 93.5174 16.4908 93.8996 16.4908Z" fill="white"/>
<path d="M100.397 12.0269C100.596 12.0269 100.806 12.0759 100.986 12.1419C100.883 12.1247 100.772 12.1145 100.652 12.1145C100.155 12.1145 99.8141 12.2885 99.5575 12.4195C99.5529 12.4219 99.5483 12.4242 99.5438 12.4265L99.7602 12.8507L99.5438 12.4265C99.3292 12.536 99.1837 12.6937 99.0771 12.8207C99.0367 12.8687 99.0029 12.9108 98.9715 12.9497C98.9093 13.027 98.8569 13.092 98.7831 13.1674L98.7293 13.2222L98.6956 13.2912C98.5464 13.5955 98.3922 14.0579 98.3922 14.5407C98.3922 15.0235 98.5464 15.4859 98.6956 15.7902C98.8677 16.1415 99.196 16.4775 99.5438 16.6549C99.6968 16.7329 99.8819 16.8082 100.067 16.8648C100.245 16.9195 100.456 16.9669 100.652 16.9669C100.754 16.9669 100.85 16.9595 100.939 16.9467C100.933 16.9496 100.926 16.9523 100.92 16.955C100.873 16.9752 100.838 16.9903 100.8 17.0047C100.719 17.0358 100.649 17.0545 100.525 17.0545C100.087 17.0545 99.6771 16.9416 99.391 16.747C99.0612 16.5226 98.7233 16.178 98.5025 15.8402C98.3146 15.5527 98.1979 15.1334 98.1979 14.5407C98.1979 13.9908 98.2965 13.6741 98.5188 13.2163C98.7758 12.8235 98.9794 12.5277 99.2636 12.3344C99.5497 12.1398 99.96 12.0269 100.397 12.0269ZM102.657 12.4607V9.94689H102.851V13.9952C102.793 13.7224 102.7 13.4772 102.609 13.2912C102.483 13.0357 102.276 12.7884 102.038 12.6043L102.657 12.4607ZM102.609 15.7902C102.7 15.6042 102.793 15.359 102.851 15.0862V16.9245H102.657V16.6207L102.038 16.4771C102.276 16.293 102.483 16.0457 102.609 15.7902Z" fill="white" stroke="white" stroke-width="0.952381"/>
<path d="M108.313 15.8403L107.914 16.1008L108.313 15.8403C108.125 15.5527 108.008 15.1335 108.008 14.5408C108.008 13.9913 108.107 13.6747 108.329 13.2174C108.55 12.8873 108.879 12.5536 109.202 12.3345C109.48 12.1451 109.886 12.027 110.463 12.027C110.9 12.027 111.31 12.1399 111.596 12.3345C111.926 12.5589 112.264 12.9034 112.485 13.2412C112.673 13.5288 112.789 13.9481 112.789 14.5408C112.789 15.1011 112.687 15.4192 112.456 15.8912C112.262 16.2863 111.981 16.4854 111.596 16.747C111.31 16.9417 110.9 17.0546 110.463 17.0546C110.037 17.0546 109.601 16.9467 109.15 16.7166C108.766 16.5205 108.571 16.2345 108.313 15.8403ZM110.463 16.967C110.96 16.967 111.301 16.793 111.557 16.6619C111.562 16.6596 111.566 16.6573 111.571 16.655C111.919 16.4775 112.247 16.1416 112.419 15.7903C112.568 15.486 112.722 15.0236 112.722 14.5408C112.722 14.5343 112.722 14.5279 112.722 14.5214C112.723 14.3407 112.723 14.1376 112.682 13.9292C112.638 13.707 112.553 13.4947 112.405 13.2639C112.23 12.9226 111.91 12.5994 111.571 12.4266C111.566 12.4243 111.562 12.422 111.557 12.4196C111.301 12.2886 110.96 12.1146 110.463 12.1146C109.966 12.1146 109.625 12.2886 109.368 12.4196C109.363 12.422 109.359 12.4243 109.354 12.4266C109.007 12.604 108.678 12.9399 108.506 13.2912L108.934 13.5008L108.506 13.2912C108.357 13.5955 108.203 14.058 108.203 14.5408C108.203 14.5472 108.203 14.5537 108.203 14.5602C108.203 14.7409 108.203 14.9439 108.243 15.1524C108.287 15.3746 108.372 15.5869 108.52 15.8176C108.695 16.1589 109.016 16.4821 109.354 16.655C109.359 16.6573 109.363 16.6596 109.368 16.6619C109.625 16.793 109.966 16.967 110.463 16.967Z" fill="white" stroke="white" stroke-width="0.952381"/>
<path d="M118.904 13.8908V16.9246H118.71V14.0208C118.71 13.4601 118.61 12.965 118.312 12.6095C117.996 12.2338 117.547 12.1146 117.087 12.1146C117.079 12.1146 117.07 12.1146 117.062 12.1146C117.002 12.1145 116.936 12.1144 116.865 12.1171C116.938 12.0801 116.999 12.0613 117.055 12.0499C117.159 12.0287 117.268 12.027 117.469 12.027C118.005 12.027 118.329 12.1861 118.534 12.437C118.754 12.7063 118.904 13.1634 118.904 13.8908ZM115.015 12.157H115.21V12.5908L115.605 12.6824C115.516 12.7896 115.447 12.9062 115.386 13.0312C115.36 13.0826 115.335 13.129 115.305 13.1811C115.303 13.1853 115.3 13.1896 115.298 13.1939C115.272 13.2402 115.239 13.2976 115.21 13.3562C115.14 13.5002 115.082 13.6698 115.082 13.8908V16.9246H115.015V12.157Z" fill="white" stroke="white" stroke-width="0.952381"/>
<path d="M125.275 12.72V16.9238H125.081V12.72V12.2438H124.605H123.934V12.1562H124.605H125.081V11.68V10.7262H125.275V11.68V12.1562H125.751H126.549V12.2438H125.751H125.275V12.72Z" fill="white" stroke="white" stroke-width="0.952381"/>
<path d="M132.282 13.8908V16.9246H132.088V14.0208C132.088 13.4601 131.988 12.965 131.69 12.6095C131.374 12.2338 130.925 12.1146 130.465 12.1146C130.457 12.1146 130.448 12.1146 130.44 12.1146C130.38 12.1146 130.314 12.1145 130.242 12.1171C130.316 12.0802 130.377 12.0614 130.433 12.0499C130.537 12.0287 130.646 12.027 130.847 12.027C131.383 12.027 131.707 12.1862 131.912 12.437C132.132 12.7063 132.282 13.1635 132.282 13.8908ZM128.587 12.5908L128.983 12.6824C128.894 12.7896 128.825 12.9063 128.763 13.0313C128.738 13.0827 128.712 13.1291 128.683 13.1811C128.681 13.1853 128.678 13.1896 128.676 13.194C128.65 13.2402 128.617 13.2976 128.588 13.3563C128.518 13.5002 128.46 13.6698 128.46 13.8908V16.9246H128.393V9.81701H128.587V12.5908Z" fill="white" stroke="white" stroke-width="0.952381"/>
<path d="M138.702 13.1903L138.715 13.2167L138.731 13.2412C138.923 13.5354 139.014 13.9214 138.922 14.2975L138.908 14.3533V14.4108V14.4546H135.052H134.51C134.521 13.9072 134.635 13.5147 134.814 13.2412C134.85 13.1865 134.889 13.1316 134.93 13.077C134.817 13.3006 134.746 13.553 134.708 13.8248L134.632 14.367H135.18H138.365H138.841V13.8908V13.7608C138.841 13.5398 138.784 13.3702 138.713 13.2262C138.684 13.1676 138.652 13.1102 138.626 13.0639C138.623 13.0596 138.621 13.0553 138.618 13.0511C138.589 12.999 138.563 12.9526 138.538 12.9012L138.527 12.8799C138.586 12.969 138.643 13.0707 138.702 13.1903ZM134.514 14.7329L134.59 15.0441C134.716 15.5593 134.874 16.1221 135.422 16.4945C135.891 16.8137 136.369 16.967 137.091 16.967C137.099 16.967 137.108 16.967 137.117 16.967C137.25 16.9671 137.416 16.9673 137.599 16.9373C137.364 17.009 137.16 17.0546 136.964 17.0546C136.387 17.0546 135.981 16.9365 135.703 16.747C135.373 16.5227 135.035 16.1781 134.814 15.8403L134.415 16.1008L134.814 15.8403C134.647 15.5848 134.536 15.2254 134.514 14.7329ZM136.836 12.1146C136.434 12.1146 136.059 12.1691 135.736 12.3123C136.013 12.1359 136.41 12.027 136.964 12.027C137.366 12.027 137.652 12.1221 137.951 12.3218C137.853 12.2761 137.736 12.2446 137.601 12.2446C137.543 12.2446 137.475 12.2298 137.336 12.1944C137.331 12.193 137.325 12.1916 137.319 12.1901C137.203 12.1602 137.025 12.1146 136.836 12.1146ZM138.385 12.6985C138.37 12.6794 138.351 12.6556 138.33 12.6297C138.379 12.6811 138.425 12.7365 138.471 12.7981L138.45 12.7775C138.44 12.7669 138.426 12.7493 138.386 12.699L138.385 12.6985Z" fill="white" stroke="white" stroke-width="0.952381"/>
<path d="M36.6928 24.9415C36.6928 22.6015 37.9668 20.2615 40.0054 19.0915C38.7313 17.2715 36.6928 16.1015 34.3994 15.9715C32.1061 15.7115 29.8128 17.4015 28.6661 17.4015C27.392 17.4015 25.6083 15.9715 23.6972 16.1015C21.1491 16.2315 18.7283 17.6615 17.4543 20.0015C14.7787 24.8115 16.8172 31.7015 19.3654 35.6015C20.6394 37.4215 22.1683 39.6315 24.0794 39.5015C25.9906 39.3715 26.755 38.2015 29.0483 38.2015C31.3417 38.2015 31.9787 39.5015 34.0172 39.3715C36.0557 39.3715 37.3298 37.4215 38.6039 35.6015C39.4957 34.3015 40.2602 32.7415 40.7698 31.1815C38.3491 30.1415 36.6928 27.6715 36.6928 24.9415Z" fill="white"/>
<path d="M32.87 13.5015C34.0166 12.0715 34.5263 10.3815 34.3989 8.56152C32.6152 8.69152 31.0863 9.60152 29.9396 10.9015C28.7929 12.2015 28.2833 13.8915 28.4107 15.7115C30.1944 15.7115 31.8507 14.9315 32.87 13.5015Z" fill="white"/>
<path d="M64.0255 34.5361L63.9149 34.215H63.5752H56.95H56.6017L56.4962 34.5469L55.0728 39.025H53.293L59.1972 22.4274H61.4555L67.3597 39.025H65.5712L64.0255 34.5361ZM57.2626 32.331L57.0545 32.9574H57.7145H62.9382H63.5982L63.3901 32.331L60.8419 24.661L60.7336 24.335H60.39H60.2626H59.919L59.8107 24.661L57.2626 32.331Z" fill="white" stroke="white" stroke-width="0.952381"/>
<path d="M81.4119 32.9996C81.4119 37.0296 79.3734 39.4996 76.1882 39.4996C74.5319 39.6296 73.003 38.7196 72.2386 37.2896V43.6596H69.6904V26.6296H72.2386V28.7096C73.003 27.2796 74.6593 26.3696 76.1882 26.4996C79.3734 26.4996 81.4119 29.0996 81.4119 32.9996ZM78.8638 32.9996C78.8638 30.3996 77.5897 28.7096 75.5512 28.7096C73.6401 28.7096 72.2386 30.3996 72.2386 32.9996C72.2386 35.5996 73.5127 37.2896 75.5512 37.2896C77.4623 37.2896 78.8638 35.5996 78.8638 32.9996Z" fill="white"/>
<path d="M95.2996 32.9996C95.2996 37.0296 93.2611 39.4996 90.0759 39.4996C88.4196 39.6296 86.8907 38.7196 86.1263 37.2896V43.6596H83.5781V26.6296H86.1263V28.7096C86.8907 27.2796 88.547 26.3696 90.0759 26.4996C93.2611 26.4996 95.2996 29.0996 95.2996 32.9996ZM92.6241 32.9996C92.6241 30.3996 91.35 28.7096 89.3115 28.7096C87.4003 28.7096 85.9989 30.3996 85.9989 32.9996C85.9989 35.5996 87.2729 37.2896 89.3115 37.2896C91.35 37.2896 92.6241 35.5996 92.6241 32.9996Z" fill="white"/>
<path d="M104.473 34.5604C104.728 36.2504 106.385 37.4204 108.55 37.4204C110.716 37.4204 112.245 36.2504 112.245 34.6904C112.245 33.2604 111.353 32.4804 109.06 31.9604L106.767 31.4404C103.582 30.6604 102.18 29.1004 102.18 26.7604C102.18 23.7704 104.728 21.6904 108.423 21.6904C112.118 21.6904 114.539 23.7704 114.666 26.7604H112.118C111.99 24.9404 110.589 23.9004 108.423 23.9004C106.385 23.9004 104.983 24.9404 104.983 26.5004C104.983 27.8004 105.875 28.4504 108.168 29.1004L110.079 29.6204C113.647 30.5304 115.048 31.9604 115.048 34.5604C115.048 37.8104 112.5 39.8904 108.423 39.8904C104.601 39.8904 102.053 37.9404 101.798 34.6904L104.473 34.5604Z" fill="white"/>
<path d="M120.653 23.5109V26.5009H123.074V28.5809H120.653V35.6009C120.653 36.6409 121.163 37.1609 122.182 37.1609C122.437 37.1609 122.692 37.1609 123.074 37.1609V39.2409C122.564 39.3709 122.182 39.3709 121.672 39.3709C119.124 39.3709 118.105 38.3309 118.105 35.8609V28.4509H116.321V26.3709H118.105V23.3809H120.653V23.5109Z" fill="white"/>
<path d="M124.348 33.0001C124.348 28.9701 126.641 26.3701 130.336 26.3701C134.031 26.3701 136.324 28.9701 136.324 33.0001C136.324 37.0301 134.031 39.6301 130.336 39.6301C126.641 39.6301 124.348 37.0301 124.348 33.0001ZM133.648 33.0001C133.648 30.2701 132.374 28.5801 130.336 28.5801C128.297 28.5801 127.023 30.2701 127.023 33.0001C127.023 35.7301 128.297 37.4201 130.336 37.4201C132.374 37.4201 133.648 35.7301 133.648 33.0001Z" fill="white"/>
<path d="M138.49 26.631H140.911V28.841C141.293 27.411 142.567 26.501 143.969 26.501C144.224 26.501 144.606 26.501 144.861 26.631V29.101C144.478 28.971 144.096 28.971 143.714 28.971C142.312 28.971 141.038 30.011 141.038 31.571C141.038 31.701 141.038 31.831 141.038 31.961V39.631H138.49V26.631Z" fill="white"/>
<path d="M156.837 35.6001C156.455 37.9401 154.289 39.5001 151.486 39.5001C147.791 39.5001 145.498 37.0301 145.498 33.0001C145.498 28.9701 147.791 26.3701 151.359 26.3701C154.799 26.3701 156.965 28.8401 156.965 32.7401V33.6501H148.046V33.7801C147.919 35.6001 149.193 37.2901 150.977 37.4201C151.104 37.4201 151.231 37.4201 151.359 37.4201C152.633 37.5501 153.78 36.7701 154.289 35.6001H156.837ZM148.046 31.8301H154.289C154.417 30.1401 153.143 28.7101 151.486 28.5801C151.359 28.5801 151.359 28.5801 151.231 28.5801C149.448 28.5801 148.046 30.0101 148.046 31.8301Z" fill="white"/>
</g>
<defs>
<clipPath id="clip0_6536_64016">
<rect width="172" height="52" fill="white" transform="translate(0 0.5)"/>
</clipPath>
</defs>
</svg>
