<svg width="22" height="23" viewBox="0 0 22 23" fill="none" xmlns="http://www.w3.org/2000/svg">
<path d="M8 11.5156L10 13.5156L14.5 9.01562M6.33377 3.33432C7.1376 3.27017 7.90071 2.95408 8.51447 2.43104C9.94672 1.21049 12.0533 1.21049 13.4855 2.43104C14.0993 2.95408 14.8624 3.27017 15.6662 3.33432C17.5421 3.48401 19.0316 4.97357 19.1813 6.84939C19.2455 7.65323 19.5615 8.41634 20.0846 9.03009C21.3051 10.4623 21.3051 12.5689 20.0846 14.0012C19.5615 14.6149 19.2455 15.378 19.1813 16.1819C19.0316 18.0577 17.5421 19.5472 15.6662 19.6969C14.8624 19.7611 14.0993 20.0772 13.4855 20.6002C12.0533 21.8208 9.94672 21.8208 8.51447 20.6002C7.90071 20.0772 7.1376 19.7611 6.33377 19.6969C4.45794 19.5472 2.96839 18.0577 2.8187 16.1819C2.75455 15.378 2.43846 14.6149 1.91542 14.0012C0.69486 12.5689 0.69486 10.4623 1.91542 9.03009C2.43846 8.41634 2.75455 7.65323 2.8187 6.84939C2.96839 4.97357 4.45794 3.48401 6.33377 3.33432Z" stroke="white" stroke-width="1.5" stroke-linecap="round" stroke-linejoin="round"/>
</svg>
