<svg width="20" height="20" viewBox="0 0 20 20" fill="none" xmlns="http://www.w3.org/2000/svg">
<path d="M14.9167 9.33594C14.1667 10.7526 12.8333 11.7526 11.1667 12.0026C11.25 12.2526 11.25 12.5859 11.25 12.9193C11.25 13.7526 11.0833 14.5026 10.75 15.1693C11.4167 16.0859 12.5 16.6693 13.75 16.6693C15.8333 16.6693 17.5 15.0026 17.5 12.9193C17.5 11.2526 16.4167 9.83594 14.9167 9.33594Z" fill="white"/>
<path d="M9.5 12.0052C7.91667 11.6719 6.58333 10.5885 5.91667 9.17188C4 9.33854 2.5 11.0052 2.5 12.9219C2.5 15.0052 4.16667 16.6719 6.25 16.6719C7.75 16.6719 9.08333 15.7552 9.66667 14.5052C9.91667 14.0052 10 13.5052 10 12.9219C10 12.6719 10 12.3385 9.91667 12.0885C9.75 12.0885 9.58333 12.0052 9.5 12.0052Z" fill="white"/>
<path d="M12.0827 10.4193C12.166 10.3359 12.2493 10.3359 12.416 10.2526C12.4993 10.2526 12.5827 10.1693 12.5827 10.0859C12.666 10.0026 12.7493 10.0026 12.7493 9.91927C12.8327 9.83594 12.916 9.75261 12.9993 9.66927C13.0827 9.58594 13.166 9.5026 13.2493 9.41927C13.3327 9.33594 13.416 9.2526 13.4994 9.16927C13.5827 9.08594 13.5827 9.0026 13.666 8.91927C13.9993 8.33594 14.166 7.7526 14.166 7.08594C14.166 5.0026 12.4993 3.33594 10.416 3.33594C8.33268 3.33594 6.66602 5.0026 6.66602 7.08594C6.66602 7.2526 6.66602 7.33594 6.66602 7.5026C6.74935 8.08594 6.91602 8.58594 7.16602 9.0026C7.24935 9.08594 7.33268 9.16927 7.33268 9.33594C7.58268 9.66927 7.83268 9.91927 8.16602 10.0859C8.24935 10.1693 8.24935 10.1693 8.33268 10.1693C8.58268 10.3359 8.83268 10.5026 9.16602 10.5859C9.41602 10.6693 9.74935 10.7526 9.99935 10.7526C10.0827 10.7526 10.2493 10.7526 10.3327 10.7526C10.8327 10.7526 11.3327 10.6693 11.7493 10.5026C11.916 10.5026 11.9993 10.5026 12.0827 10.4193Z" fill="white"/>
</svg>
