<svg width="20" height="20" viewBox="0 0 20 20" fill="none" xmlns="http://www.w3.org/2000/svg">
<path d="M14.9167 9.33594C14.1667 10.7526 12.8333 11.7526 11.1667 12.0026C11.25 12.2526 11.25 12.5859 11.25 12.9193C11.25 13.7526 11.0833 14.5026 10.75 15.1693C11.4167 16.0859 12.5 16.6693 13.75 16.6693C15.8333 16.6693 17.5 15.0026 17.5 12.9193C17.5 11.2526 16.4167 9.83594 14.9167 9.33594Z" fill="white"/>
<path d="M9.5 12.0052C7.91667 11.6719 6.58333 10.5885 5.91667 9.17188C4 9.33854 2.5 11.0052 2.5 12.9219C2.5 15.0052 4.16667 16.6719 6.25 16.6719C7.75 16.6719 9.08333 15.7552 9.66667 14.5052C9.91667 14.0052 10 13.5052 10 12.9219C10 12.6719 10 12.3385 9.91667 12.0885C9.75 12.0885 9.58333 12.0052 9.5 12.0052Z" fill="white"/>
<path d="M12.0837 10.4193C12.167 10.3359 12.2503 10.3359 12.417 10.2526C12.5003 10.2526 12.5837 10.1693 12.5837 10.0859C12.667 10.0026 12.7503 10.0026 12.7503 9.91927C12.8337 9.83594 12.917 9.75261 13.0003 9.66927C13.0837 9.58594 13.167 9.5026 13.2503 9.41927C13.3337 9.33594 13.417 9.2526 13.5003 9.16927C13.5837 9.08594 13.5837 9.0026 13.667 8.91927C14.0003 8.33594 14.167 7.7526 14.167 7.08594C14.167 5.0026 12.5003 3.33594 10.417 3.33594C8.33366 3.33594 6.66699 5.0026 6.66699 7.08594C6.66699 7.2526 6.66699 7.33594 6.66699 7.5026C6.75033 8.08594 6.91699 8.58594 7.16699 9.0026C7.25033 9.08594 7.33366 9.16927 7.33366 9.33594C7.58366 9.66927 7.83366 9.91927 8.16699 10.0859C8.25033 10.1693 8.25033 10.1693 8.33366 10.1693C8.58366 10.3359 8.83366 10.5026 9.16699 10.5859C9.41699 10.6693 9.75033 10.7526 10.0003 10.7526C10.0837 10.7526 10.2503 10.7526 10.3337 10.7526C10.8337 10.7526 11.3337 10.6693 11.7503 10.5026C11.917 10.5026 12.0003 10.5026 12.0837 10.4193Z" fill="white"/>
</svg>
