<svg width="20" height="20" viewBox="0 0 20 20" fill="none" xmlns="http://www.w3.org/2000/svg">
<path d="M10.0003 17.0576C10.8849 17.8493 12.0531 18.3307 13.3337 18.3307C16.0951 18.3307 18.3337 16.0922 18.3337 13.3307C18.3337 11.025 16.7729 9.08372 14.6502 8.50587M5.35047 8.50586C3.22777 9.08371 1.66699 11.0249 1.66699 13.3307C1.66699 16.0922 3.90557 18.3307 6.66699 18.3307C9.42842 18.3307 11.667 16.0922 11.667 13.3307C11.667 12.6803 11.5428 12.0589 11.3168 11.4889M15.0003 6.66406C15.0003 9.42549 12.7618 11.6641 10.0003 11.6641C7.2389 11.6641 5.00033 9.42549 5.00033 6.66406C5.00033 3.90264 7.2389 1.66406 10.0003 1.66406C12.7618 1.66406 15.0003 3.90264 15.0003 6.66406Z" stroke="#656369" stroke-width="1.5" stroke-linecap="round" stroke-linejoin="round"/>
</svg>
