<svg width="20" height="20" viewBox="0 0 20 20" fill="none" xmlns="http://www.w3.org/2000/svg">
<g clip-path="url(#clip0_18701_16842)">
<path d="M9.99934 17.0576C10.8839 17.8493 12.0521 18.3307 13.3327 18.3307C16.0941 18.3307 18.3327 16.0922 18.3327 13.3307C18.3327 11.025 16.7719 9.08372 14.6492 8.50587M5.3495 8.50586C3.22679 9.08371 1.66602 11.0249 1.66602 13.3307C1.66602 16.0922 3.90459 18.3307 6.66602 18.3307C9.42744 18.3307 11.666 16.0922 11.666 13.3307C11.666 12.6803 11.5418 12.0589 11.3159 11.4889M14.9993 6.66406C14.9993 9.42549 12.7608 11.6641 9.99935 11.6641C7.23793 11.6641 4.99935 9.42549 4.99935 6.66406C4.99935 3.90264 7.23793 1.66406 9.99935 1.66406C12.7608 1.66406 14.9993 3.90264 14.9993 6.66406Z" stroke="#656369" stroke-width="1.5" stroke-linecap="round" stroke-linejoin="round"/>
</g>
<defs>
<clipPath id="clip0_18701_16842">
<rect width="20" height="20" fill="white"/>
</clipPath>
</defs>
</svg>
