<svg width="20" height="20" viewBox="0 0 20 20" fill="none" xmlns="http://www.w3.org/2000/svg">
<path d="M8.75033 1.66639C8.18778 1.67402 7.85007 1.70658 7.57701 1.84572C7.2634 2.00551 7.00844 2.26047 6.84865 2.57408C6.70951 2.84714 6.67695 3.18485 6.66932 3.7474M16.2503 1.66639C16.8129 1.67402 17.1506 1.70658 17.4236 1.84572C17.7372 2.00551 17.9922 2.26047 18.152 2.57408C18.2911 2.84714 18.3237 3.18485 18.3313 3.74739M18.3313 11.2474C18.3237 11.8099 18.2911 12.1476 18.152 12.4207C17.9922 12.7343 17.7372 12.9893 17.4236 13.1491C17.1506 13.2882 16.8129 13.3208 16.2503 13.3284M18.3337 6.66406V8.33072M11.667 1.66406H13.3336M4.33366 18.3307H10.667C11.6004 18.3307 12.0671 18.3307 12.4236 18.1491C12.7372 17.9893 12.9922 17.7343 13.152 17.4207C13.3337 17.0642 13.3337 16.5975 13.3337 15.6641V9.33073C13.3337 8.39731 13.3337 7.9306 13.152 7.57408C12.9922 7.26047 12.7372 7.00551 12.4236 6.84572C12.0671 6.66406 11.6004 6.66406 10.667 6.66406H4.33366C3.40024 6.66406 2.93353 6.66406 2.57701 6.84572C2.2634 7.00551 2.00844 7.26047 1.84865 7.57408C1.66699 7.9306 1.66699 8.39731 1.66699 9.33073V15.6641C1.66699 16.5975 1.66699 17.0642 1.84865 17.4207C2.00844 17.7343 2.2634 17.9893 2.57701 18.1491C2.93353 18.3307 3.40024 18.3307 4.33366 18.3307Z" stroke="white" stroke-width="1.5" stroke-linecap="round" stroke-linejoin="round"/>
</svg>
