<svg width="24" height="24" viewBox="0 0 24 24" fill="none" xmlns="http://www.w3.org/2000/svg">
<path d="M6.4 14.4C5.65449 14.4 5.28174 14.4 4.98771 14.2782C4.59566 14.1158 4.28418 13.8043 4.12179 13.4123C4 13.1183 4 12.7455 4 12V6.56C4 5.66392 4 5.21587 4.17439 4.87362C4.32779 4.57256 4.57256 4.32779 4.87362 4.17439C5.21587 4 5.66392 4 6.56 4H12C12.7455 4 13.1183 4 13.4123 4.12179C13.8043 4.28418 14.1158 4.59566 14.2782 4.98771C14.4 5.28174 14.4 5.65449 14.4 6.4M12.16 20H17.44C18.3361 20 18.7841 20 19.1264 19.8256C19.4274 19.6722 19.6722 19.4274 19.8256 19.1264C20 18.7841 20 18.3361 20 17.44V12.16C20 11.2639 20 10.8159 19.8256 10.4736C19.6722 10.1726 19.4274 9.92779 19.1264 9.77439C18.7841 9.6 18.3361 9.6 17.44 9.6H12.16C11.2639 9.6 10.8159 9.6 10.4736 9.77439C10.1726 9.92779 9.92779 10.1726 9.77439 10.4736C9.6 10.8159 9.6 11.2639 9.6 12.16V17.44C9.6 18.3361 9.6 18.7841 9.77439 19.1264C9.92779 19.4274 10.1726 19.6722 10.4736 19.8256C10.8159 20 11.2639 20 12.16 20Z" stroke="#1C1B1F" stroke-width="1.5" stroke-linecap="round" stroke-linejoin="round"/>
</svg>
