<svg width="20" height="20" viewBox="0 0 20 20" fill="none" xmlns="http://www.w3.org/2000/svg">
<path fill-rule="evenodd" clip-rule="evenodd" d="M1.81477 10.1836C1.84654 10.3222 1.90328 10.412 2.01677 10.5917C2.95461 12.0767 5.74617 15.8307 10.0003 15.8307C14.2545 15.8307 17.0461 12.0767 17.9839 10.5917L17.9839 10.5917C18.0974 10.412 18.1541 10.3222 18.1859 10.1836C18.2098 10.0795 18.2098 9.91531 18.1859 9.81122C18.1541 9.67263 18.0974 9.58278 17.9839 9.40308C17.0461 7.9181 14.2545 4.16406 10.0003 4.16406C5.74617 4.16406 2.95461 7.9181 2.01677 9.40308C1.90328 9.58278 1.84654 9.67263 1.81477 9.81122C1.79091 9.91531 1.79091 10.0795 1.81477 10.1836ZM12.5004 9.9974C12.5004 11.3781 11.3811 12.4974 10.0004 12.4974C8.61969 12.4974 7.50041 11.3781 7.50041 9.9974C7.50041 8.61668 8.61969 7.4974 10.0004 7.4974C11.3811 7.4974 12.5004 8.61668 12.5004 9.9974Z" fill="white"/>
</svg>
