<svg width="20" height="20" viewBox="0 0 20 20" fill="none" xmlns="http://www.w3.org/2000/svg">
<path d="M2.01677 10.5917C1.90328 10.412 1.84654 10.3222 1.81477 10.1836C1.79091 10.0795 1.79091 9.91531 1.81477 9.81122C1.84654 9.67263 1.90328 9.58278 2.01677 9.40308C2.95461 7.9181 5.74617 4.16406 10.0003 4.16406C14.2545 4.16406 17.0461 7.9181 17.9839 9.40308C18.0974 9.58278 18.1541 9.67263 18.1859 9.81122C18.2098 9.91531 18.2098 10.0795 18.1859 10.1836C18.1541 10.3222 18.0974 10.412 17.9839 10.5917C17.0461 12.0767 14.2545 15.8307 10.0003 15.8307C5.74617 15.8307 2.95461 12.0767 2.01677 10.5917Z" stroke="#656369" stroke-width="1.5" stroke-linecap="round" stroke-linejoin="round"/>
<path d="M10.0003 12.4974C11.381 12.4974 12.5003 11.3781 12.5003 9.9974C12.5003 8.61668 11.381 7.4974 10.0003 7.4974C8.61962 7.4974 7.50034 8.61668 7.50034 9.9974C7.50034 11.3781 8.61962 12.4974 10.0003 12.4974Z" stroke="#656369" stroke-width="1.5" stroke-linecap="round" stroke-linejoin="round"/>
</svg>
