<svg width="20" height="20" viewBox="0 0 20 20" fill="none" xmlns="http://www.w3.org/2000/svg">
<mask id="path-1-inside-1_6220_84028" fill="white">
<path d="M2.39735 15.0963C2.43564 14.7517 2.45478 14.5794 2.50691 14.4184C2.55316 14.2755 2.61851 14.1396 2.70118 14.0142C2.79436 13.8729 2.91694 13.7503 3.16209 13.5052L14.1673 2.49992C15.0878 1.57945 16.5802 1.57945 17.5007 2.49993C18.4211 3.4204 18.4211 4.91279 17.5007 5.83326L6.49542 16.8385C6.25027 17.0836 6.1277 17.2062 5.98639 17.2994C5.86102 17.3821 5.72506 17.4474 5.58219 17.4937C5.42115 17.5458 5.24887 17.5649 4.90429 17.6032L2.08398 17.9166L2.39735 15.0963Z"/>
</mask>
<path d="M14.4703 8.86359C14.7632 9.15648 15.2381 9.15648 15.531 8.86359C15.8239 8.5707 15.8239 8.09582 15.531 7.80293L14.4703 8.86359ZM12.1977 4.4696C11.9048 4.1767 11.4299 4.1767 11.137 4.4696C10.8441 4.76249 10.8441 5.23736 11.137 5.53026L12.1977 4.4696ZM15.531 7.80293L12.1977 4.4696L11.137 5.53026L14.4703 8.86359L15.531 7.80293ZM2.08398 17.9166L0.593159 17.7509C0.542838 18.2038 0.701113 18.655 1.02332 18.9773C1.34554 19.2995 1.79674 19.4577 2.24963 19.4074L2.08398 17.9166ZM6.49542 16.8385L5.43476 15.7778L6.49542 16.8385ZM5.98639 17.2994L6.81216 18.5516L5.98639 17.2994ZM4.90429 17.6032L5.06994 19.0941H5.06994L4.90429 17.6032ZM5.58219 17.4937L5.1202 16.0666L5.58219 17.4937ZM3.16209 13.5052L2.10143 12.4445L3.16209 13.5052ZM2.70118 14.0142L1.44894 13.1884L2.70118 14.0142ZM2.39735 15.0963L3.88818 15.2619L2.39735 15.0963ZM2.50691 14.4184L3.934 14.8804L2.50691 14.4184ZM17.5007 5.83326L18.5613 6.89392L17.5007 5.83326ZM14.1673 2.49992L15.228 3.56059L14.1673 2.49992ZM4.22275 14.5658L15.228 3.56059L13.1067 1.43926L2.10143 12.4445L4.22275 14.5658ZM16.44 4.7726L5.43476 15.7778L7.55608 17.8992L18.5613 6.89392L16.44 4.7726ZM4.73864 16.1124L1.91834 16.4258L2.24963 19.4074L5.06994 19.0941L4.73864 16.1124ZM3.57481 18.0822L3.88818 15.2619L0.906526 14.9306L0.593159 17.7509L3.57481 18.0822ZM5.43476 15.7778C5.30423 15.9084 5.23628 15.9759 5.18411 16.0241C5.14081 16.0641 5.14042 16.0605 5.16062 16.0472L6.81216 18.5516C7.11002 18.3552 7.35342 18.1018 7.55608 17.8992L5.43476 15.7778ZM5.06994 19.0941C5.3548 19.0624 5.70473 19.0306 6.04417 18.9207L5.1202 16.0666C5.14323 16.0591 5.14583 16.0617 5.08755 16.0705C5.01733 16.0812 4.92211 16.092 4.73864 16.1124L5.06994 19.0941ZM5.16062 16.0472C5.14809 16.0554 5.1345 16.062 5.1202 16.0666L6.04417 18.9207C6.31562 18.8329 6.57396 18.7087 6.81216 18.5516L5.16062 16.0472ZM2.10143 12.4445C1.89877 12.6472 1.64536 12.8906 1.44894 13.1884L3.95342 14.84C3.9401 14.8602 3.93645 14.8598 3.97645 14.8165C4.02464 14.7643 4.09222 14.6963 4.22275 14.5658L2.10143 12.4445ZM3.88818 15.2619C3.90856 15.0785 3.91941 14.9832 3.93004 14.913C3.93887 14.8547 3.94145 14.8573 3.934 14.8804L1.07983 13.9564C0.969939 14.2959 0.938177 14.6458 0.906526 14.9306L3.88818 15.2619ZM1.44894 13.1884C1.29187 13.4266 1.16771 13.6849 1.07983 13.9564L3.934 14.8804C3.93862 14.8661 3.94516 14.8525 3.95342 14.84L1.44894 13.1884ZM16.44 3.56059C16.7747 3.89527 16.7747 4.43791 16.44 4.7726L18.5613 6.89392C20.0676 5.38766 20.0676 2.94553 18.5613 1.43927L16.44 3.56059ZM18.5613 1.43927C17.0551 -0.0669935 14.6129 -0.0669957 13.1067 1.43926L15.228 3.56059C15.5627 3.2259 16.1053 3.2259 16.44 3.56059L18.5613 1.43927Z" fill="white" mask="url(#path-1-inside-1_6220_84028)"/>
</svg>
