<svg width="28" height="28" viewBox="0 0 28 28" fill="none" xmlns="http://www.w3.org/2000/svg">
  <path
    d="M12.5334 5.94104C13.0076 5.87094 13.4967 5.83333 14.0005 5.83333C19.9563 5.83333 23.8645 11.089 25.1775 13.168C25.3364 13.4196 25.4158 13.5454 25.4603 13.7395C25.4937 13.8852 25.4937 14.1151 25.4603 14.2608C25.4158 14.4549 25.3358 14.5815 25.1757 14.8348C24.8259 15.3885 24.2925 16.1666 23.5859 17.0105M7.84504 7.83421C5.32262 9.54532 3.61019 11.9226 2.82462 13.1662C2.665 13.4188 2.58519 13.5452 2.5407 13.7392C2.50728 13.885 2.50727 14.1148 2.54067 14.2606C2.58513 14.4546 2.66459 14.5804 2.82349 14.832C4.13646 16.911 8.04465 22.1667 14.0005 22.1667C16.402 22.1667 18.4705 21.3122 20.1703 20.156M3.50048 3.5L24.5005 24.5M11.5256 11.5251C10.8922 12.1585 10.5005 13.0335 10.5005 14C10.5005 15.933 12.0675 17.5 14.0005 17.5C14.967 17.5 15.842 17.1082 16.4754 16.4749"
    stroke="#fff" stroke-width="1.5" stroke-linecap="round" stroke-linejoin="round" />
</svg>