<svg width="24" height="24" viewBox="0 0 24 24" fill="none" xmlns="http://www.w3.org/2000/svg">
<path d="M2 12.5L2 5.5C2 3.84315 3.34315 2.5 5 2.5L19 2.5C20.6569 2.5 22 3.84315 22 5.5L22 12.5L2 12.5Z" fill="white"/>
<path d="M3 17.5L3 18.3C3 19.4201 3 19.9802 3.21799 20.408C3.40973 20.7843 3.71569 21.0903 4.09202 21.282C4.51984 21.5 5.0799 21.5 6.2 21.5L17.8 21.5C18.9201 21.5 19.4802 21.5 19.908 21.282C20.2843 21.0903 20.5903 20.7843 20.782 20.408C21 19.9802 21 19.4201 21 18.3L21 17.5" stroke="white" stroke-width="1.5" stroke-linecap="round" stroke-linejoin="round"/>
</svg>
