<svg width="24" height="24" viewBox="0 0 24 24" fill="none" xmlns="http://www.w3.org/2000/svg">
<path d="M16.5 20.9961L17.3 20.9961C18.4201 20.9961 18.9802 20.9961 19.408 20.7781C19.7843 20.5864 20.0903 20.2804 20.282 19.9041C20.5 19.4763 20.5 18.9162 20.5 17.7961L20.5 6.19609C20.5 5.07599 20.5 4.51594 20.282 4.08811C20.0903 3.71179 19.7843 3.40583 19.408 3.21408C18.9802 2.99609 18.4201 2.99609 17.3 2.99609L16.5 2.99609M6 2.99609C6 2.99609 5.5 2.99609 4.5 2.99609C3.5 2.99609 3 3.50195 3 4.50195C3 5.50195 3 6.00098 3 6.00098M5.5 20.9961C5.5 20.9961 4.5 20.9961 4 20.9961C3.5 20.9961 3 20.4902 3 19.9961C3 19.502 3 18.501 3 18.501M3 10.502L3 13.002M11.5 2.99609L11.5 20.9961" stroke="#656369" stroke-width="1.5" stroke-linecap="round" stroke-linejoin="round"/>
</svg>
