<svg width="24" height="24" viewBox="0 0 24 24" fill="none" xmlns="http://www.w3.org/2000/svg">
<path d="M12 2H19C20.6569 2 22 3.34315 22 5V19C22 20.6569 20.6569 22 19 22H12V2Z" fill="white"/>
<path d="M7 2.99609L6.2 2.99609C5.0799 2.99609 4.51984 2.99609 4.09202 3.21408C3.7157 3.40582 3.40973 3.71179 3.21799 4.08811C3 4.51593 3 5.07599 3 6.19609L3 17.7961C3 18.9162 3 19.4763 3.21799 19.9041C3.40973 20.2804 3.71569 20.5864 4.09202 20.7781C4.51984 20.9961 5.07989 20.9961 6.2 20.9961L7 20.9961" stroke="white" stroke-width="1.5" stroke-linecap="round" stroke-linejoin="round"/>
</svg>
