<svg width="24" height="24" viewBox="0 0 24 24" fill="none" xmlns="http://www.w3.org/2000/svg">
<path d="M20.75 7.24609V6.44609C20.75 5.32599 20.75 4.76594 20.532 4.33811C20.3403 3.96179 20.0343 3.65583 19.658 3.46408C19.2302 3.24609 18.6701 3.24609 17.55 3.24609L5.95 3.24609C4.8299 3.24609 4.26984 3.24609 3.84202 3.46408C3.4657 3.65583 3.15973 3.96179 2.96799 4.33811C2.75 4.76594 2.75 5.32599 2.75 6.44609V7.24609M2.75 17.7461C2.75 17.7461 2.75 18.2461 2.75 19.2461C2.75 20.2461 3.25586 20.7461 4.25586 20.7461C5.25586 20.7461 5.75488 20.7461 5.75488 20.7461M20.75 18.2461C20.75 18.2461 20.75 19.2461 20.75 19.7461C20.75 20.2461 20.2441 20.7461 19.75 20.7461C19.2559 20.7461 18.2549 20.7461 18.2549 20.7461M10.2559 20.7461H12.7559M2.75 12.2461L20.75 12.2461" stroke="#656369" stroke-width="1.5" stroke-linecap="round" stroke-linejoin="round"/>
</svg>
