<svg width="20" height="20" viewBox="0 0 20 20" fill="none" xmlns="http://www.w3.org/2000/svg">
<g clip-path="url(#clip0_18612_47907)">
<path d="M10.0003 14.1641C12.3015 14.1641 14.167 12.2986 14.167 9.9974C14.167 7.69621 12.3015 5.83073 10.0003 5.83073C7.69914 5.83073 5.83366 7.69621 5.83366 9.9974C5.83366 12.2986 7.69914 14.1641 10.0003 14.1641Z" fill="white"/>
<path d="M10.0003 1.66406V3.33073M10.0003 16.6641V18.3307M3.33366 9.9974H1.66699M5.26209 5.25916L4.08358 4.08065M14.7386 5.25916L15.9171 4.08065M5.26209 14.7391L4.08358 15.9176M14.7386 14.7391L15.9171 15.9176M18.3337 9.9974H16.667M14.167 9.9974C14.167 12.2986 12.3015 14.1641 10.0003 14.1641C7.69914 14.1641 5.83366 12.2986 5.83366 9.9974C5.83366 7.69621 7.69914 5.83073 10.0003 5.83073C12.3015 5.83073 14.167 7.69621 14.167 9.9974Z" stroke="white" stroke-width="1.5" stroke-linecap="round" stroke-linejoin="round"/>
</g>
<defs>
<clipPath id="clip0_18612_47907">
<rect width="20" height="20" fill="white"/>
</clipPath>
</defs>
</svg>
