<svg width="24" height="24" viewBox="0 0 24 24" fill="none" xmlns="http://www.w3.org/2000/svg">
<mask id="path-1-outside-1_7891_10450" maskUnits="userSpaceOnUse" x="0" y="3" width="24" height="18" fill="black">
<rect fill="white" y="3" width="24" height="18"/>
<path d="M1.04898 13.0798C1.30037 11.7371 1.87674 10.5862 2.77807 9.62712C3.51999 8.8334 4.39067 8.29103 5.4269 8.08599C5.59859 8.05291 5.74574 8.01323 5.84998 7.82803C6.224 7.1666 6.69613 6.58454 7.24184 6.08185C8.93415 4.52088 10.8962 3.89252 13.1036 4.1637C13.9927 4.26953 14.8388 4.56056 15.6298 5.03018C15.7463 5.09632 15.8015 5.10955 15.8689 4.95081C16.1939 4.19016 16.9052 3.8859 17.5428 4.03803C18.1683 4.19016 18.622 4.71931 18.6588 5.38735C18.7078 6.16122 18.6772 6.94171 18.6588 7.7222C18.6588 8 18.7017 8.25134 18.8182 8.49607C18.9776 8.8334 19.1248 9.18396 19.229 9.54775C19.2842 9.72633 19.3762 9.80571 19.5356 9.85862C21.2279 10.4274 22.3255 11.6445 22.8528 13.4634C22.9325 13.7412 22.9386 14.0389 22.9754 14.3497C22.9938 14.6672 22.9938 15.5535 22.9631 15.7255C22.7056 17.1674 22.0434 18.3382 20.9152 19.1782C20.3388 19.6081 19.7134 19.9256 19.0022 19.9917C18.9715 19.9917 5.43303 19.9917 5.37785 19.9917C5.12033 19.9917 4.87506 19.919 4.63593 19.833C3.19502 19.3105 2.15879 18.2985 1.48432 16.8433C0.828241 15.2823 1.01832 13.2451 1.04898 13.0798ZM12.1839 18.8805C14.2195 18.8805 16.2491 18.8805 18.2848 18.8805C18.4748 18.8805 18.6649 18.8673 18.8489 18.8276C20.9397 18.3977 22.2274 16.2679 21.8595 14.1447C21.5774 12.5176 20.394 11.1947 18.8979 10.9301C18.5484 10.8706 18.3829 10.6788 18.297 10.3415C18.0886 9.50145 17.7452 8.72757 17.2485 8.0463C15.826 6.11492 13.9804 5.17569 11.675 5.32782C10.9637 5.37412 10.2892 5.54609 9.63928 5.85035C8.65823 6.30012 7.8366 6.9814 7.16826 7.87433C6.99658 8.10583 6.98432 8.10583 7.24797 8.20504C7.7201 8.39024 8.14318 8.66143 8.48655 9.0649C8.60918 9.21042 8.67049 9.37578 8.63984 9.56759C8.56626 10.0041 8.03894 10.2621 7.71397 9.90492C7.49324 9.66019 7.23571 9.46176 6.92913 9.36255C6.20561 9.12443 5.48822 9.17735 4.81375 9.54113C3.27473 10.3679 2.38565 11.7371 2.1036 13.5362C1.89513 14.8789 2.19558 16.1356 2.99881 17.2071C3.81431 18.2919 4.86893 18.8938 6.18722 18.8871C8.1861 18.8871 10.185 18.8871 12.1839 18.8871V18.8805ZM17.7023 6.71683C17.7023 6.32658 17.7023 5.93634 17.7023 5.53948C17.7023 5.30798 17.5735 5.14924 17.3712 5.06986C17.1995 5.00372 16.9603 5.06986 16.8377 5.22199C16.6906 5.40058 16.6783 5.71807 16.8255 5.86358C17.1136 6.14138 17.4202 6.39934 17.6961 6.71683H17.7023Z"/>
</mask>
<path d="M1.04898 13.0798C1.30037 11.7371 1.87674 10.5862 2.77807 9.62712C3.51999 8.8334 4.39067 8.29103 5.4269 8.08599C5.59859 8.05291 5.74574 8.01323 5.84998 7.82803C6.224 7.1666 6.69613 6.58454 7.24184 6.08185C8.93415 4.52088 10.8962 3.89252 13.1036 4.1637C13.9927 4.26953 14.8388 4.56056 15.6298 5.03018C15.7463 5.09632 15.8015 5.10955 15.8689 4.95081C16.1939 4.19016 16.9052 3.8859 17.5428 4.03803C18.1683 4.19016 18.622 4.71931 18.6588 5.38735C18.7078 6.16122 18.6772 6.94171 18.6588 7.7222C18.6588 8 18.7017 8.25134 18.8182 8.49607C18.9776 8.8334 19.1248 9.18396 19.229 9.54775C19.2842 9.72633 19.3762 9.80571 19.5356 9.85862C21.2279 10.4274 22.3255 11.6445 22.8528 13.4634C22.9325 13.7412 22.9386 14.0389 22.9754 14.3497C22.9938 14.6672 22.9938 15.5535 22.9631 15.7255C22.7056 17.1674 22.0434 18.3382 20.9152 19.1782C20.3388 19.6081 19.7134 19.9256 19.0022 19.9917C18.9715 19.9917 5.43303 19.9917 5.37785 19.9917C5.12033 19.9917 4.87506 19.919 4.63593 19.833C3.19502 19.3105 2.15879 18.2985 1.48432 16.8433C0.828241 15.2823 1.01832 13.2451 1.04898 13.0798ZM12.1839 18.8805C14.2195 18.8805 16.2491 18.8805 18.2848 18.8805C18.4748 18.8805 18.6649 18.8673 18.8489 18.8276C20.9397 18.3977 22.2274 16.2679 21.8595 14.1447C21.5774 12.5176 20.394 11.1947 18.8979 10.9301C18.5484 10.8706 18.3829 10.6788 18.297 10.3415C18.0886 9.50145 17.7452 8.72757 17.2485 8.0463C15.826 6.11492 13.9804 5.17569 11.675 5.32782C10.9637 5.37412 10.2892 5.54609 9.63928 5.85035C8.65823 6.30012 7.8366 6.9814 7.16826 7.87433C6.99658 8.10583 6.98432 8.10583 7.24797 8.20504C7.7201 8.39024 8.14318 8.66143 8.48655 9.0649C8.60918 9.21042 8.67049 9.37578 8.63984 9.56759C8.56626 10.0041 8.03894 10.2621 7.71397 9.90492C7.49324 9.66019 7.23571 9.46176 6.92913 9.36255C6.20561 9.12443 5.48822 9.17735 4.81375 9.54113C3.27473 10.3679 2.38565 11.7371 2.1036 13.5362C1.89513 14.8789 2.19558 16.1356 2.99881 17.2071C3.81431 18.2919 4.86893 18.8938 6.18722 18.8871C8.1861 18.8871 10.185 18.8871 12.1839 18.8871V18.8805ZM17.7023 6.71683C17.7023 6.32658 17.7023 5.93634 17.7023 5.53948C17.7023 5.30798 17.5735 5.14924 17.3712 5.06986C17.1995 5.00372 16.9603 5.06986 16.8377 5.22199C16.6906 5.40058 16.6783 5.71807 16.8255 5.86358C17.1136 6.14138 17.4202 6.39934 17.6961 6.71683H17.7023Z" fill="#1C1B1F"/>
<path d="M1.04898 13.0798C1.30037 11.7371 1.87674 10.5862 2.77807 9.62712C3.51999 8.8334 4.39067 8.29103 5.4269 8.08599C5.59859 8.05291 5.74574 8.01323 5.84998 7.82803C6.224 7.1666 6.69613 6.58454 7.24184 6.08185C8.93415 4.52088 10.8962 3.89252 13.1036 4.1637C13.9927 4.26953 14.8388 4.56056 15.6298 5.03018C15.7463 5.09632 15.8015 5.10955 15.8689 4.95081C16.1939 4.19016 16.9052 3.8859 17.5428 4.03803C18.1683 4.19016 18.622 4.71931 18.6588 5.38735C18.7078 6.16122 18.6772 6.94171 18.6588 7.7222C18.6588 8 18.7017 8.25134 18.8182 8.49607C18.9776 8.8334 19.1248 9.18396 19.229 9.54775C19.2842 9.72633 19.3762 9.80571 19.5356 9.85862C21.2279 10.4274 22.3255 11.6445 22.8528 13.4634C22.9325 13.7412 22.9386 14.0389 22.9754 14.3497C22.9938 14.6672 22.9938 15.5535 22.9631 15.7255C22.7056 17.1674 22.0434 18.3382 20.9152 19.1782C20.3388 19.6081 19.7134 19.9256 19.0022 19.9917C18.9715 19.9917 5.43303 19.9917 5.37785 19.9917C5.12033 19.9917 4.87506 19.919 4.63593 19.833C3.19502 19.3105 2.15879 18.2985 1.48432 16.8433C0.828241 15.2823 1.01832 13.2451 1.04898 13.0798ZM12.1839 18.8805C14.2195 18.8805 16.2491 18.8805 18.2848 18.8805C18.4748 18.8805 18.6649 18.8673 18.8489 18.8276C20.9397 18.3977 22.2274 16.2679 21.8595 14.1447C21.5774 12.5176 20.394 11.1947 18.8979 10.9301C18.5484 10.8706 18.3829 10.6788 18.297 10.3415C18.0886 9.50145 17.7452 8.72757 17.2485 8.0463C15.826 6.11492 13.9804 5.17569 11.675 5.32782C10.9637 5.37412 10.2892 5.54609 9.63928 5.85035C8.65823 6.30012 7.8366 6.9814 7.16826 7.87433C6.99658 8.10583 6.98432 8.10583 7.24797 8.20504C7.7201 8.39024 8.14318 8.66143 8.48655 9.0649C8.60918 9.21042 8.67049 9.37578 8.63984 9.56759C8.56626 10.0041 8.03894 10.2621 7.71397 9.90492C7.49324 9.66019 7.23571 9.46176 6.92913 9.36255C6.20561 9.12443 5.48822 9.17735 4.81375 9.54113C3.27473 10.3679 2.38565 11.7371 2.1036 13.5362C1.89513 14.8789 2.19558 16.1356 2.99881 17.2071C3.81431 18.2919 4.86893 18.8938 6.18722 18.8871C8.1861 18.8871 10.185 18.8871 12.1839 18.8871V18.8805ZM17.7023 6.71683C17.7023 6.32658 17.7023 5.93634 17.7023 5.53948C17.7023 5.30798 17.5735 5.14924 17.3712 5.06986C17.1995 5.00372 16.9603 5.06986 16.8377 5.22199C16.6906 5.40058 16.6783 5.71807 16.8255 5.86358C17.1136 6.14138 17.4202 6.39934 17.6961 6.71683H17.7023Z" stroke="#1C1B1F" stroke-width="0.2" mask="url(#path-1-outside-1_7891_10450)"/>
<path d="M15.9854 13.6354C15.9977 15.6726 14.3483 17.6899 12.0673 17.6172C10.093 17.551 8.39453 15.8247 8.39453 13.5163C8.39453 11.1484 10.1849 9.4022 12.2145 9.42204C14.3176 9.43527 16.0712 11.3005 15.9854 13.642V13.6354ZM14.8756 13.5229C14.894 11.909 13.6983 10.6788 12.3065 10.6192C10.7674 10.5531 9.54113 11.8627 9.51047 13.4568C9.47982 15.1103 10.6939 16.42 12.2267 16.42C13.6799 16.42 14.9062 15.0839 14.8756 13.5229Z" fill="#1C1B1F"/>
<path d="M16.0281 10.0048C15.6664 10.0048 15.3905 9.70053 15.3966 9.31029C15.3966 8.92666 15.6786 8.6224 16.0404 8.62901C16.396 8.62901 16.6719 8.93327 16.6719 9.32351C16.6719 9.70714 16.3899 10.0048 16.0281 10.0048Z" fill="#1C1B1F"/>
</svg>
