<svg width="20" height="20" viewBox="0 0 20 20" fill="none" xmlns="http://www.w3.org/2000/svg">
<g clip-path="url(#clip0_19384_56429)">
<path d="M13.3332 13.3307V15.6641C13.3332 16.5975 13.3332 17.0642 13.1515 17.4207C12.9917 17.7343 12.7368 17.9893 12.4232 18.1491C12.0666 18.3307 11.5999 18.3307 10.6665 18.3307H4.33317C3.39975 18.3307 2.93304 18.3307 2.57652 18.1491C2.26292 17.9893 2.00795 17.7343 1.84816 17.4207C1.6665 17.0642 1.6665 16.5975 1.6665 15.6641V9.33073C1.6665 8.39731 1.6665 7.9306 1.84816 7.57408C2.00795 7.26047 2.26292 7.00551 2.57652 6.84572C2.93304 6.66406 3.39975 6.66406 4.33317 6.66406H6.6665M9.33317 13.3307H15.6665C16.5999 13.3307 17.0666 13.3307 17.4232 13.1491C17.7368 12.9893 17.9917 12.7343 18.1515 12.4207C18.3332 12.0642 18.3332 11.5975 18.3332 10.6641V4.33073C18.3332 3.39731 18.3332 2.9306 18.1515 2.57408C17.9917 2.26047 17.7368 2.00551 17.4232 1.84572C17.0666 1.66406 16.5999 1.66406 15.6665 1.66406H9.33317C8.39975 1.66406 7.93304 1.66406 7.57652 1.84572C7.26292 2.00551 7.00795 2.26047 6.84816 2.57408C6.6665 2.9306 6.6665 3.39731 6.6665 4.33073V10.6641C6.6665 11.5975 6.6665 12.0642 6.84816 12.4207C7.00795 12.7343 7.26292 12.9893 7.57652 13.1491C7.93304 13.3307 8.39975 13.3307 9.33317 13.3307Z" stroke="white" stroke-width="1.5" stroke-linecap="round" stroke-linejoin="round"/>
</g>
<defs>
<clipPath id="clip0_19384_56429">
<rect width="20" height="20" fill="white"/>
</clipPath>
</defs>
</svg>
