<svg width="20" height="20" viewBox="0 0 20 20" fill="none" xmlns="http://www.w3.org/2000/svg">
<path d="M13.3337 13.3307V15.6641C13.3337 16.5975 13.3337 17.0642 13.152 17.4207C12.9922 17.7343 12.7372 17.9893 12.4236 18.1491C12.0671 18.3307 11.6004 18.3307 10.667 18.3307H4.33366C3.40024 18.3307 2.93353 18.3307 2.57701 18.1491C2.2634 17.9893 2.00844 17.7343 1.84865 17.4207C1.66699 17.0642 1.66699 16.5975 1.66699 15.6641V9.33073C1.66699 8.39731 1.66699 7.9306 1.84865 7.57408C2.00844 7.26047 2.2634 7.00551 2.57701 6.84572C2.93353 6.66406 3.40024 6.66406 4.33366 6.66406H6.66699M9.33366 13.3307H15.667C16.6004 13.3307 17.0671 13.3307 17.4236 13.1491C17.7372 12.9893 17.9922 12.7343 18.152 12.4207C18.3337 12.0642 18.3337 11.5975 18.3337 10.6641V4.33073C18.3337 3.39731 18.3337 2.9306 18.152 2.57408C17.9922 2.26047 17.7372 2.00551 17.4236 1.84572C17.0671 1.66406 16.6004 1.66406 15.667 1.66406H9.33366C8.40024 1.66406 7.93353 1.66406 7.57701 1.84572C7.2634 2.00551 7.00844 2.26047 6.84865 2.57408C6.66699 2.9306 6.66699 3.39731 6.66699 4.33073V10.6641C6.66699 11.5975 6.66699 12.0642 6.84865 12.4207C7.00844 12.7343 7.2634 12.9893 7.57701 13.1491C7.93353 13.3307 8.40024 13.3307 9.33366 13.3307Z" stroke="#656369" stroke-width="1.5" stroke-linecap="round" stroke-linejoin="round"/>
</svg>
