<svg width="80" height="80" viewBox="0 0 80 80" fill="none" xmlns="http://www.w3.org/2000/svg">
<path d="M54 70H23.1046C21.0852 70 20.0755 70 19.6079 69.6007C19.2023 69.2542 18.987 68.7344 19.0288 68.2026C19.0771 67.5896 19.791 66.8756 21.219 65.4477L49.5621 37.1046C50.8821 35.7845 51.5422 35.1245 52.3033 34.8772C52.9728 34.6597 53.6939 34.6597 54.3634 34.8772C55.1245 35.1245 55.7845 35.7845 57.1046 37.1046L70 50V54M54 70C59.6005 70 62.4008 70 64.5399 68.9101C66.4215 67.9513 67.9513 66.4215 68.9101 64.5399C70 62.4008 70 59.6005 70 54M54 70H26C20.3995 70 17.5992 70 15.4601 68.9101C13.5785 67.9513 12.0487 66.4215 11.0899 64.5399C10 62.4008 10 59.6005 10 54V26C10 20.3995 10 17.5992 11.0899 15.4601C12.0487 13.5785 13.5785 12.0487 15.4601 11.0899C17.5992 10 20.3995 10 26 10H54C59.6005 10 62.4008 10 64.5399 11.0899C66.4215 12.0487 67.9513 13.5785 68.9101 15.4601C70 17.5992 70 20.3995 70 26V54M35 28.3333C35 32.0152 32.0152 35 28.3333 35C24.6514 35 21.6667 32.0152 21.6667 28.3333C21.6667 24.6514 24.6514 21.6667 28.3333 21.6667C32.0152 21.6667 35 24.6514 35 28.3333Z" stroke="#1C1B1F" stroke-width="3" stroke-linecap="round" stroke-linejoin="round"/>
</svg>
