<svg width="124" height="124" viewBox="0 0 124 124" fill="none" xmlns="http://www.w3.org/2000/svg">
<g clip-path="url(#clip0_5702_94734)">
<rect width="124" height="124" rx="62" fill="#F7F7F7"/>
<path d="M102 115.939C91.3148 125.317 77.3274 131 62 131C46.6726 131 32.6852 125.317 22 115.939C23.2498 113.058 25.0353 110.455 27.219 108.26C31.7023 103.77 37.9043 100.988 44.738 100.988C44.946 100.988 45.1442 100.909 45.2933 100.77L47.0002 99.1504C49.5097 96.765 50.681 93.3382 50.2337 89.9801C50.114 89.0959 49.5489 88.3512 48.7857 87.8835C41.5831 83.541 36.7722 75.644 36.7722 66.6132V50.8171C36.7722 37.1156 47.8635 26 61.5527 26H63.6069C77.298 26 88.3874 37.1176 88.3874 50.8171V66.6132C88.3874 75.5143 83.704 83.3249 76.6721 87.6949C76.0678 88.0722 75.591 88.6184 75.3222 89.2845C73.9822 92.6819 74.6767 96.5469 77.1077 99.2703L78.2594 100.551C78.5066 100.83 78.8735 100.988 79.2522 100.988C89.4312 100.988 98.1799 107.148 102 115.941V115.939Z" fill="#656369"/>
</g>
<defs>
<clipPath id="clip0_5702_94734">
<rect width="124" height="124" rx="62" fill="white"/>
</clipPath>
</defs>
</svg>
