<svg width="24" height="24" viewBox="0 0 24 24" fill="none" xmlns="http://www.w3.org/2000/svg">
<path d="M2 7.5V7C2 5.31984 2 5.27976 2.32698 4.63803C2.6146 4.07354 3.07354 3.6146 3.63803 3.32698C4.27976 3 5.11984 3 6.8 3H17.2C18.8802 3 19.7202 3 20.362 3.32698C20.9265 3.6146 21.3854 4.07354 21.673 4.63803C22 5.27976 22 6.11984 22 7.8V16.2C22 17.8802 22 21 20 21M2 11.5C2 11.5 10.5 11.5 13 11.5C15.5 11.5 16.5 12.5 16.5 14.5C16.5 16.5 16.5 21 16.5 21M2 16.2C2 16.2 5 16.2 8 16.2C11 16.2 11.5 17 11.5 18.5C11.5 20 11.5 21 11.5 21" stroke="#656369" stroke-width="1.5" stroke-linecap="round" stroke-linejoin="round"/>
</svg>
