<svg width="24" height="24" viewBox="0 0 24 24" fill="none" xmlns="http://www.w3.org/2000/svg">
<path d="M23 6V18.349C23 19.319 22.237 20.1079 21.3057 20.1079H19.6814V9.5C19.6814 8.52998 18.9312 7.74103 18 7.74103H1L1 6C1 4.5 2 3.48828 4 3.48828H20C22 3.48828 23 4.5 23 6Z" fill="white"/>
<path d="M17.9999 11.0115L18 20.106L14.052 20.106V14.9985C14.052 14.132 13.3666 13.4336 12.5 13.4336H1.00008L1 9.43362L16.4608 9.43357C17.3144 9.43357 17.9999 10.1449 17.9999 10.9985V11.0115Z" fill="white"/>
<path d="M13 16.2776V20H3C1.5 20 1 19.5 1 18V15H11.6468C12.5 15 13 15.3846 13 16.2776Z" fill="white"/>
</svg>
