<svg width="24" height="24" viewBox="0 0 24 24" fill="none" xmlns="http://www.w3.org/2000/svg">
<path d="M2 7.33333C2 5.46649 2 4.53307 2.36331 3.82003C2.68289 3.19282 3.19282 2.68289 3.82003 2.36331C4.53307 2 5.46649 2 7.33333 2H16.6667C18.5335 2 19.4669 2 20.18 2.36331C20.8072 2.68289 21.3171 3.19282 21.6367 3.82003C22 4.53307 22 5.46649 22 7.33333V16.6667C22 18.5335 22 19.4669 21.6367 20.18C21.3171 20.8072 20.8072 21.3171 20.18 21.6367C19.4669 22 18.5335 22 16.6667 22H7.33333C5.46649 22 4.53307 22 3.82003 21.6367C3.19282 21.3171 2.68289 20.8072 2.36331 20.18C2 19.4669 2 18.5335 2 16.6667V7.33333Z" fill="white"/>
<path d="M8.41177 14C8.41177 12.3198 8.41177 10.7798 8.68105 10.138C8.91791 9.57354 9.29587 9.1146 9.76074 8.82698C10.2892 8.5 10.9811 8.5 12.3647 8.5L15 8.5M8.41177 14L7 12.5M8.41177 14L9.82353 12.5M15 8.5L13.4583 10.138M15 8.5L13.5882 7" stroke="black" stroke-width="1.5" stroke-linecap="round" stroke-linejoin="round"/>
</svg>
