<svg width="24" height="24" viewBox="0 0 24 24" fill="none" xmlns="http://www.w3.org/2000/svg">
<path d="M3 7.8C3 6.11984 3 5.27976 3.32698 4.63803C3.6146 4.07354 4.07354 3.6146 4.63803 3.32698C5.27976 3 6.11984 3 7.8 3H16.2C17.8802 3 18.7202 3 19.362 3.32698C19.9265 3.6146 20.3854 4.07354 20.673 4.63803C21 5.27976 21 6.11984 21 7.8V16.2C21 17.8802 21 18.7202 20.673 19.362C20.3854 19.9265 19.9265 20.3854 19.362 20.673C18.7202 21 17.8802 21 16.2 21H7.8C6.11984 21 5.27976 21 4.63803 20.673C4.07354 20.3854 3.6146 19.9265 3.32698 19.362C3 18.7202 3 17.8802 3 16.2V7.8Z" stroke="#656369" stroke-width="1.5" stroke-linecap="round" stroke-linejoin="round"/>
<path d="M8.41177 14C8.41177 12.3198 8.41177 10.7798 8.68105 10.138C8.91791 9.57354 9.29587 9.1146 9.76074 8.82698C10.2892 8.5 10.9811 8.5 12.3647 8.5L15 8.5M8.41177 14L7 12.5M8.41177 14L9.82353 12.5M15 8.5L13.4583 10.138M15 8.5L13.5882 7" stroke="#656369" stroke-width="1.5" stroke-linecap="round" stroke-linejoin="round"/>
</svg>
