<svg width="20" height="20" viewBox="0 0 20 20" fill="none" xmlns="http://www.w3.org/2000/svg">
<path d="M3 19L3 13M3 13C4.10457 13 5 12.1046 5 11C5 9.89543 4.10457 9 3 9C1.89543 9 1 9.89543 1 11C1 12.1046 1.89543 13 3 13ZM3 5V1M10 19V13M10 5V1M10 5C8.89543 5 8 5.89543 8 7C8 8.10457 8.89543 9 10 9C11.1046 9 12 8.10457 12 7C12 5.89543 11.1046 5 10 5ZM17 19V15M17 15C18.1046 15 19 14.1046 19 13C19 11.8954 18.1046 11 17 11C15.8954 11 15 11.8954 15 13C15 14.1046 15.8954 15 17 15ZM17 7V1" stroke="white" stroke-width="1.5" stroke-linecap="round" stroke-linejoin="round"/>
</svg>
