<svg width="23" height="20" viewBox="0 0 23 20" fill="none" xmlns="http://www.w3.org/2000/svg">
<path d="M4.5 8.5V7C4.5 6.17157 3.82843 5.5 3 5.5C2.17157 5.5 1.5 6.17157 1.5 7C1.5 7.82843 2.17157 8.5 3 8.5H4.5ZM4.5 8.5V11.5M4.5 8.5H7.5M4.5 11.5V13C4.5 13.8284 3.82843 14.5 3 14.5C2.17157 14.5 1.5 13.8284 1.5 13C1.5 12.1716 2.17157 11.5 3 11.5H4.5ZM4.5 11.5H7.5M7.5 11.5H9C9.82843 11.5 10.5 12.1716 10.5 13C10.5 13.8284 9.82843 14.5 9 14.5C8.17157 14.5 7.5 13.8284 7.5 13V11.5ZM7.5 11.5V8.5M7.5 8.5V7C7.5 6.17157 8.17157 5.5 9 5.5C9.82843 5.5 10.5 6.17157 10.5 7C10.5 7.82843 9.82843 8.5 9 8.5H7.5Z" stroke="#656369" stroke-linecap="round" stroke-linejoin="round"/>
<path d="M20.4795 11.835H21.792C21.7236 12.4639 21.5436 13.0267 21.252 13.5234C20.9603 14.0202 20.5479 14.4144 20.0146 14.7061C19.4814 14.9932 18.8161 15.1367 18.0186 15.1367C17.4352 15.1367 16.9043 15.0273 16.4258 14.8086C15.9518 14.5898 15.5439 14.2799 15.2021 13.8789C14.8604 13.4733 14.596 12.988 14.4092 12.4229C14.2269 11.8532 14.1357 11.2197 14.1357 10.5225V9.53125C14.1357 8.83398 14.2269 8.2028 14.4092 7.6377C14.596 7.06803 14.8626 6.5804 15.209 6.1748C15.5599 5.76921 15.9814 5.45703 16.4736 5.23828C16.9658 5.01953 17.5195 4.91016 18.1348 4.91016C18.8867 4.91016 19.5225 5.05143 20.042 5.33398C20.5615 5.61654 20.9648 6.00846 21.252 6.50977C21.5436 7.00651 21.7236 7.58301 21.792 8.23926H20.4795C20.4157 7.77441 20.2972 7.37565 20.124 7.04297C19.9508 6.70573 19.7048 6.44596 19.3857 6.26367C19.0667 6.08138 18.6497 5.99023 18.1348 5.99023C17.6927 5.99023 17.3031 6.07454 16.9658 6.24316C16.6331 6.41178 16.3529 6.65104 16.125 6.96094C15.9017 7.27083 15.7331 7.64225 15.6191 8.0752C15.5052 8.50814 15.4482 8.98893 15.4482 9.51758V10.5225C15.4482 11.0101 15.4984 11.4681 15.5986 11.8965C15.7035 12.3249 15.8607 12.7008 16.0703 13.0244C16.2799 13.348 16.5465 13.6032 16.8701 13.79C17.1937 13.9723 17.5765 14.0635 18.0186 14.0635C18.5791 14.0635 19.0257 13.9746 19.3584 13.7969C19.6911 13.6191 19.9417 13.3639 20.1104 13.0312C20.2835 12.6986 20.4066 12.2998 20.4795 11.835Z" fill="#656369"/>
</svg>
