<svg width="23" height="20" viewBox="0 0 23 20" fill="none" xmlns="http://www.w3.org/2000/svg">
<path d="M4.5 8.5V7C4.5 6.17157 3.82843 5.5 3 5.5C2.17157 5.5 1.5 6.17157 1.5 7C1.5 7.82843 2.17157 8.5 3 8.5H4.5ZM4.5 8.5V11.5M4.5 8.5H7.5M4.5 11.5V13C4.5 13.8284 3.82843 14.5 3 14.5C2.17157 14.5 1.5 13.8284 1.5 13C1.5 12.1716 2.17157 11.5 3 11.5H4.5ZM4.5 11.5H7.5M7.5 11.5H9C9.82843 11.5 10.5 12.1716 10.5 13C10.5 13.8284 9.82843 14.5 9 14.5C8.17157 14.5 7.5 13.8284 7.5 13V11.5ZM7.5 11.5V8.5M7.5 8.5V7C7.5 6.17157 8.17157 5.5 9 5.5C9.82843 5.5 10.5 6.17157 10.5 7C10.5 7.82843 9.82843 8.5 9 8.5H7.5Z" stroke="#656369" stroke-linecap="round" stroke-linejoin="round"/>
<path d="M17.7861 13.4893L20.7188 5.04688H22.1475L18.4629 15H17.4443L17.7861 13.4893ZM15.0449 5.04688L17.9502 13.4893L18.3125 15H17.2939L13.6162 5.04688H15.0449Z" fill="#656369"/>
</svg>
