<svg width="24" height="24" viewBox="0 0 24 24" fill="none" xmlns="http://www.w3.org/2000/svg">
<path d="M9.2019 20.6009C9.52965 20.5575 9.86073 20.6464 10.1218 20.8475L11.3251 21.7708C11.7228 22.0764 12.2761 22.0764 12.6727 21.7708L13.9215 20.812C14.1548 20.6331 14.4492 20.5542 14.7403 20.5931L16.3024 20.7986C16.799 20.8642 17.2779 20.5875 17.4701 20.1242L18.0712 18.6709C18.1834 18.3987 18.3989 18.1832 18.6711 18.0709L20.1243 17.4698C20.5876 17.2787 20.8643 16.7988 20.7987 16.3021L20.601 14.7966C20.5576 14.4688 20.6465 14.1377 20.8476 13.8766L21.7709 12.6733C22.0764 12.2755 22.0764 11.7222 21.7709 11.3256L20.812 10.0767C20.6332 9.84339 20.5543 9.54896 20.5932 9.25785L20.7987 7.69568C20.8643 7.19902 20.5876 6.72015 20.1243 6.52793L18.6711 5.92684C18.3989 5.81462 18.1834 5.59907 18.0712 5.32685L17.4701 3.87356C17.279 3.41024 16.799 3.13358 16.3024 3.19913L14.7403 3.40468C14.4492 3.44468 14.1548 3.36579 13.9226 3.18802L12.6738 2.22916C12.2761 1.92361 11.7228 1.92361 11.3262 2.22916L10.0774 3.18802C9.84407 3.36579 9.54965 3.44468 9.25856 3.40691L7.69647 3.20136C7.19984 3.1358 6.721 3.41246 6.52879 3.87578L5.92884 5.32907C5.81552 5.60018 5.59998 5.81573 5.32889 5.92906L3.87568 6.52904C3.41238 6.72126 3.13574 7.20013 3.20129 7.69679L3.40683 9.25897C3.4446 9.55007 3.36572 9.8445 3.18796 10.0767L2.22915 11.3256C1.92362 11.7233 1.92362 12.2767 2.22915 12.6733L3.18796 13.9222C3.36683 14.1555 3.44571 14.4499 3.40683 14.741L3.20129 16.3032C3.13574 16.7999 3.41238 17.2787 3.87568 17.471L5.32889 18.0721C5.60109 18.1843 5.81663 18.3998 5.92884 18.672L6.5299 20.1253C6.721 20.5887 7.20096 20.8653 7.69758 20.7998L9.2019 20.6009Z" stroke="#1C1B1F" stroke-width="1.5" stroke-linecap="round" stroke-linejoin="round"/>
<path d="M11.6413 7.72825C11.7566 7.49478 11.8142 7.37804 11.8924 7.34074C11.9605 7.30829 12.0395 7.30829 12.1076 7.34074C12.1858 7.37804 12.2434 7.49478 12.3587 7.72824L13.452 9.94323C13.4861 10.0122 13.5031 10.0466 13.5279 10.0734C13.5499 10.0971 13.5763 10.1163 13.6057 10.1299C13.6388 10.1453 13.6768 10.1509 13.7529 10.162L16.1985 10.5194C16.456 10.5571 16.5848 10.5759 16.6444 10.6388C16.6962 10.6935 16.7206 10.7687 16.7108 10.8435C16.6994 10.9294 16.6062 11.0202 16.4197 11.2018L14.6507 12.9248C14.5956 12.9785 14.568 13.0054 14.5502 13.0373C14.5345 13.0656 14.5244 13.0967 14.5205 13.1288C14.5161 13.1651 14.5226 13.2031 14.5356 13.279L14.953 15.7126C14.997 15.9693 15.019 16.0977 14.9776 16.1738C14.9417 16.2401 14.8777 16.2866 14.8035 16.3003C14.7183 16.3161 14.6031 16.2555 14.3726 16.1343L12.1862 14.9845C12.1181 14.9487 12.084 14.9308 12.0481 14.9237C12.0163 14.9175 11.9837 14.9175 11.9519 14.9237C11.916 14.9308 11.882 14.9487 11.8138 14.9845L9.62746 16.1343C9.39696 16.2555 9.28171 16.3161 9.19649 16.3003C9.12234 16.2866 9.05836 16.2401 9.02237 16.1738C8.981 16.0977 9.00301 15.9693 9.04704 15.7126L9.46444 13.279C9.47746 13.2031 9.48396 13.1651 9.47956 13.1288C9.47566 13.0967 9.46556 13.0656 9.4498 13.0373C9.43201 13.0054 9.40444 12.9785 9.34929 12.9248L7.58028 11.2018C7.39383 11.0202 7.30061 10.9294 7.28926 10.8435C7.27939 10.7687 7.30378 10.6935 7.35563 10.6388C7.41522 10.5759 7.54399 10.5571 7.80152 10.5194L10.2472 10.162C10.3232 10.1509 10.3612 10.1453 10.3944 10.1299C10.4237 10.1163 10.4501 10.0971 10.4721 10.0734C10.497 10.0466 10.514 10.0122 10.548 9.94323L11.6413 7.72825Z" stroke="#1C1B1F" stroke-width="1.2" stroke-linecap="round" stroke-linejoin="round"/>
</svg>
