<svg width="24" height="24" viewBox="0 0 24 24" fill="none" xmlns="http://www.w3.org/2000/svg">
<g clip-path="url(#clip0_7557_15147)">
<g filter="url(#filter0_d_7557_15147)">
<path d="M9.2019 20.6009C9.52965 20.5575 9.86073 20.6464 10.1218 20.8475L11.3251 21.7708C11.7228 22.0764 12.2761 22.0764 12.6727 21.7708L13.9215 20.812C14.1548 20.6331 14.4492 20.5542 14.7403 20.5931L16.3024 20.7986C16.799 20.8642 17.2779 20.5875 17.4701 20.1242L18.0712 18.6709C18.1834 18.3987 18.3989 18.1832 18.6711 18.0709L20.1243 17.4698C20.5876 17.2787 20.8643 16.7988 20.7987 16.3021L20.601 14.7966C20.5576 14.4688 20.6465 14.1377 20.8476 13.8766L21.7709 12.6733C22.0764 12.2755 22.0764 11.7222 21.7709 11.3256L20.812 10.0767C20.6332 9.84339 20.5543 9.54896 20.5932 9.25785L20.7987 7.69568C20.8643 7.19902 20.5876 6.72015 20.1243 6.52793L18.6711 5.92684C18.3989 5.81462 18.1834 5.59907 18.0712 5.32685L17.4701 3.87356C17.279 3.41024 16.799 3.13358 16.3024 3.19913L14.7403 3.40468C14.4492 3.44468 14.1548 3.3658 13.9226 3.18802L12.6738 2.22916C12.2761 1.92361 11.7228 1.92361 11.3262 2.22916L10.0774 3.18802C9.84407 3.3658 9.54965 3.44468 9.25856 3.40691L7.69647 3.20136C7.19984 3.1358 6.721 3.41246 6.52879 3.87578L5.92884 5.32907C5.81552 5.60018 5.59998 5.81573 5.32889 5.92906L3.87568 6.52904C3.41238 6.72126 3.13574 7.20013 3.20129 7.69679L3.40683 9.25897C3.4446 9.55007 3.36572 9.8445 3.18796 10.0767L2.22915 11.3256C1.92362 11.7233 1.92362 12.2767 2.22915 12.6733L3.18796 13.9222C3.36683 14.1555 3.44571 14.4499 3.40683 14.741L3.20129 16.3032C3.13574 16.7999 3.41238 17.2787 3.87568 17.471L5.32889 18.0721C5.60109 18.1843 5.81663 18.3998 5.92884 18.672L6.5299 20.1253C6.721 20.5886 7.20096 20.8653 7.69758 20.7998L9.2019 20.6009Z" fill="#1C1B1F"/>
</g>
<path d="M11.6413 7.72629C11.7566 7.49282 11.8142 7.37609 11.8924 7.33879C11.9605 7.30634 12.0395 7.30634 12.1076 7.33879C12.1858 7.37609 12.2434 7.49282 12.3587 7.72629L13.452 9.94128C13.4861 10.0102 13.5031 10.0447 13.5279 10.0714C13.5499 10.0951 13.5763 10.1143 13.6057 10.1279C13.6388 10.1433 13.6768 10.1489 13.7529 10.16L16.1985 10.5175C16.456 10.5551 16.5848 10.574 16.6444 10.6369C16.6962 10.6916 16.7206 10.7668 16.7108 10.8415C16.6994 10.9274 16.6062 11.0182 16.4197 11.1998L14.6507 12.9228C14.5956 12.9766 14.568 13.0034 14.5502 13.0354C14.5345 13.0637 14.5244 13.0947 14.5205 13.1269C14.5161 13.1632 14.5226 13.2011 14.5356 13.277L14.953 15.7107C14.997 15.9674 15.019 16.0957 14.9776 16.1719C14.9417 16.2381 14.8777 16.2846 14.8035 16.2984C14.7183 16.3142 14.6031 16.2536 14.3726 16.1323L12.1862 14.9826C12.1181 14.9467 12.084 14.9288 12.0481 14.9218C12.0163 14.9155 11.9837 14.9155 11.9519 14.9218C11.916 14.9288 11.882 14.9467 11.8138 14.9826L9.62746 16.1323C9.39696 16.2536 9.28171 16.3142 9.19649 16.2984C9.12234 16.2846 9.05836 16.2381 9.02237 16.1719C8.981 16.0957 9.00301 15.9674 9.04704 15.7107L9.46444 13.277C9.47746 13.2011 9.48396 13.1632 9.47956 13.1269C9.47566 13.0947 9.46556 13.0637 9.4498 13.0354C9.43201 13.0034 9.40444 12.9766 9.34929 12.9228L7.58028 11.1998C7.39383 11.0182 7.30061 10.9274 7.28926 10.8415C7.27939 10.7668 7.30378 10.6916 7.35563 10.6369C7.41522 10.574 7.54399 10.5551 7.80152 10.5175L10.2472 10.16C10.3232 10.1489 10.3612 10.1433 10.3944 10.1279C10.4237 10.1143 10.4501 10.0951 10.4721 10.0714C10.497 10.0447 10.514 10.0102 10.548 9.94128L11.6413 7.72629Z" fill="white"/>
</g>
<defs>
<filter id="filter0_d_7557_15147" x="-1" y="1" width="26" height="26" filterUnits="userSpaceOnUse" color-interpolation-filters="sRGB">
<feFlood flood-opacity="0" result="BackgroundImageFix"/>
<feColorMatrix in="SourceAlpha" type="matrix" values="0 0 0 0 0 0 0 0 0 0 0 0 0 0 0 0 0 0 127 0" result="hardAlpha"/>
<feOffset dy="2"/>
<feGaussianBlur stdDeviation="1.5"/>
<feComposite in2="hardAlpha" operator="out"/>
<feColorMatrix type="matrix" values="0 0 0 0 0 0 0 0 0 0 0 0 0 0 0 0 0 0 0.08 0"/>
<feBlend mode="normal" in2="BackgroundImageFix" result="effect1_dropShadow_7557_15147"/>
<feBlend mode="normal" in="SourceGraphic" in2="effect1_dropShadow_7557_15147" result="shape"/>
</filter>
<clipPath id="clip0_7557_15147">
<rect width="24" height="24" fill="white"/>
</clipPath>
</defs>
</svg>
