<svg width="24" height="24" viewBox="0 0 24 24" fill="none" xmlns="http://www.w3.org/2000/svg">
<g clip-path="url(#clip0_8418_22020)">
<path d="M1 14.6875L11.6065 19.8708C11.7508 19.9413 11.8229 19.9766 11.8986 19.9905C11.9656 20.0028 12.0344 20.0028 12.1014 19.9905C12.1771 19.9766 12.2492 19.9413 12.3935 19.8708L23 14.6875" stroke="white" stroke-width="1.5" stroke-linecap="round" stroke-linejoin="round"/>
<path d="M11.1678 4.90127C11.6963 4.65948 12.3037 4.65948 12.8322 4.90127L22.0334 9.11143C22.812 9.46769 22.8119 10.5739 22.0333 10.9301L12.8321 15.1398C12.3037 15.3816 11.6963 15.3816 11.1679 15.1398L1.96666 10.9301C1.18806 10.5739 1.18804 9.46769 1.96662 9.11143L11.1678 4.90127Z" fill="white"/>
</g>
<defs>
<clipPath id="clip0_8418_22020">
<rect width="24" height="24" fill="white"/>
</clipPath>
</defs>
</svg>
