<svg width="24" height="24" viewBox="0 0 24 24" fill="none" xmlns="http://www.w3.org/2000/svg">
<path d="M1 14.6878L11.6065 19.8711C11.7508 19.9416 11.8229 19.9769 11.8986 19.9908C11.9656 20.0031 12.0344 20.0031 12.1014 19.9908C12.1771 19.9769 12.2492 19.9416 12.3935 19.8711L23 14.6878M1 9.31218L11.6065 4.12887C11.7508 4.05836 11.8229 4.0231 11.8986 4.00922C11.9656 3.99693 12.0344 3.99693 12.1014 4.00922C12.1771 4.0231 12.2492 4.05836 12.3935 4.12887L23 9.31218L12.3935 14.4955C12.2492 14.566 12.1771 14.6013 12.1014 14.6151C12.0344 14.6274 11.9656 14.6274 11.8986 14.6151C11.8229 14.6013 11.7508 14.566 11.6065 14.4955L1 9.31218Z" stroke="#656369" stroke-width="1.5" stroke-linecap="round" stroke-linejoin="round"/>
</svg>
