<svg width="20" height="20" viewBox="0 0 20 20" fill="none" xmlns="http://www.w3.org/2000/svg">
<path fill-rule="evenodd" clip-rule="evenodd" d="M10 1.66406C11.1506 1.66406 12.0833 2.5968 12.0833 3.7474V11.4622C13.0883 12.1349 13.75 13.2806 13.75 14.5807C13.75 16.6518 12.0711 18.3307 10 18.3307C7.92893 18.3307 6.25 16.6518 6.25 14.5807C6.25 13.2806 6.91168 12.1349 7.91667 11.4622V3.74739C7.91667 2.5968 8.84941 1.66406 10 1.66406ZM11.6667 14.9974C11.6667 15.9179 10.9205 16.6641 10 16.6641C9.07953 16.6641 8.33333 15.9179 8.33333 14.9974C8.33333 14.0769 9.07953 13.3307 10 13.3307C10.9205 13.3307 11.6667 14.0769 11.6667 14.9974Z" fill="white"/>
</svg>
