<svg width="20" height="20" viewBox="0 0 20 20" fill="none" xmlns="http://www.w3.org/2000/svg">
<path d="M12.0833 3.7474C12.0833 2.5968 11.1506 1.66406 10 1.66406C8.84941 1.66406 7.91667 2.5968 7.91667 3.74739V11.4622C6.91168 12.1349 6.25 13.2806 6.25 14.5807C6.25 16.6518 7.92893 18.3307 10 18.3307C12.0711 18.3307 13.75 16.6518 13.75 14.5807C13.75 13.2806 13.0883 12.1349 12.0833 11.4622V3.7474Z" stroke="#656369" stroke-width="1.5" stroke-linecap="round" stroke-linejoin="round"/>
<path d="M10 15.4141C10.4602 15.4141 10.8333 15.041 10.8333 14.5807C10.8333 14.1205 10.4602 13.7474 10 13.7474C9.53976 13.7474 9.16667 14.1205 9.16667 14.5807C9.16667 15.041 9.53976 15.4141 10 15.4141Z" stroke="#656369" stroke-width="1.5" stroke-linecap="round" stroke-linejoin="round"/>
</svg>
